<?xml version="1.0" encoding="utf-8" standalone="no"?>
<!DOCTYPE svg PUBLIC "-//W3C//DTD SVG 1.1//EN"
  "http://www.w3.org/Graphics/SVG/1.1/DTD/svg11.dtd">
<!-- Created with matplotlib (http://matplotlib.org/) -->
<svg height="527pt" version="1.1" viewBox="0 0 704 527" width="704pt" xmlns="http://www.w3.org/2000/svg" xmlns:xlink="http://www.w3.org/1999/xlink">
 <defs>
  <style type="text/css">
*{stroke-linecap:butt;stroke-linejoin:round;stroke-miterlimit:100000;}
  </style>
 </defs>
 <g id="figure_1">
  <g id="patch_1">
   <path d="M 0 527.758577 
L 704.558168 527.758577 
L 704.558168 0 
L 0 0 
z
" style="fill:#ffffff;"/>
  </g>
  <g id="axes_1">
   <g id="patch_2">
    <path d="M 26.935379 516.138308 
L 697.358168 516.138308 
L 697.358168 7.2 
L 26.935379 7.2 
z
" style="fill:#ffffff;"/>
   </g>
   <g id="line2d_1">
    <path clip-path="url(#p29b9823cd6)" d="M 39.828125 503.296021 
L 61.342178 503.16134 
L 93.454421 502.759732 
L 137.323894 501.97121 
L 182.220532 500.946258 
L 229.8302 499.660685 
L 282.513741 498.031706 
L 339.940771 496.036798 
L 401.184767 493.681971 
L 462.896277 491.092093 
L 530.229514 488.036612 
L 596.891834 484.791395 
L 668.579772 481.072198 
L 684.465422 480.217245 
L 684.465422 480.217245 
" style="fill:none;stroke:#ff0000;stroke-linecap:square;"/>
   </g>
   <g id="line2d_2">
    <path clip-path="url(#p29b9823cd6)" d="M 39.828125 497.785539 
L 51.362031 497.609165 
L 64.998679 497.185764 
L 83.3616 496.369234 
L 103.078793 495.240963 
L 126.767055 493.594831 
L 149.627066 491.741922 
L 171.286051 489.7701 
L 194.083523 487.485053 
L 218.251755 484.843614 
L 244.398664 481.747666 
L 268.537484 478.681686 
L 296.961748 474.828664 
L 322.716927 471.121042 
L 350.071202 466.967537 
L 377.706827 462.554371 
L 406.798364 457.681761 
L 433.792154 452.959322 
L 465.242806 447.220867 
L 493.091066 441.933743 
L 525.456077 435.553233 
L 556.532413 429.194744 
L 588.576944 422.406551 
L 620.714328 415.36851 
L 654.06376 407.827298 
L 684.465422 400.746506 
L 684.465422 400.746506 
" style="fill:none;stroke:#0000ff;stroke-linecap:square;"/>
   </g>
   <g id="line2d_3">
    <path clip-path="url(#p29b9823cd6)" d="M 39.828125 506.351033 
L 41.543472 506.17672 
L 45.536575 504.970762 
L 49.653214 502.837035 
L 54.416924 499.412565 
L 57.683794 496.526987 
L 65.01503 488.592719 
L 71.648935 479.796216 
L 76.187613 472.946994 
L 79.15007 468.126537 
L 82.696895 462.001538 
L 85.709665 456.502521 
L 89.65767 448.893456 
L 94.9121 438.073833 
L 101.472704 423.484521 
L 106.61194 411.240582 
L 113.294415 394.276835 
L 120.338806 375.148907 
L 126.230563 358.192234 
L 134.569536 332.734825 
L 141.009542 311.93017 
L 145.498688 296.848706 
L 152.282738 273.168947 
L 159.373767 247.292324 
L 167.73574 215.325851 
L 173.232366 193.470645 
L 177.705326 175.198903 
L 186.359599 138.622382 
L 194.229199 103.979756 
L 202.459173 66.363512 
L 210.441156 28.544961 
L 216.492288 -1 
L 216.492288 -1 
" style="fill:none;stroke:#008000;stroke-linecap:square;"/>
   </g>
   <g id="line2d_4">
    <path clip-path="url(#p29b9823cd6)" d="M 39.828125 506.091281 
L 43.011293 502.6569 
L 45.013572 496.848612 
L 48.465711 480.066688 
L 52.922917 445.558028 
L 55.747255 416.12595 
L 60.740024 349.621257 
L 62.092511 328.407198 
L 67.050699 238.915564 
L 68.26916 214.095646 
L 72.610087 116.571212 
L 73.955802 83.446056 
L 77.140857 -1 
L 77.140857 -1 
" style="fill:none;stroke:#ffa500;stroke-linecap:square;"/>
   </g>
   <g id="line2d_5">
    <path clip-path="url(#p29b9823cd6)" d="M 39.828125 503.578213 
L 65.106904 503.472677 
L 90.868225 503.153337 
L 116.987394 502.614362 
L 142.357231 501.884957 
L 168.878037 500.906688 
L 195.877659 499.685116 
L 223.295162 498.212458 
L 253.082213 496.348144 
L 278.33806 494.552273 
L 307.716416 492.215398 
L 333.965105 489.902416 
L 359.636851 487.435188 
L 387.685884 484.507999 
L 414.380413 481.497985 
L 442.692225 478.067033 
L 467.546807 474.852854 
L 492.419539 471.44729 
L 519.737768 467.489208 
L 545.734618 463.511173 
L 570.609346 459.51202 
L 595.856562 455.260321 
L 625.27534 450.061486 
L 652.199594 445.072918 
L 678.349985 440.01696 
L 684.465422 438.804644 
L 684.465422 438.804644 
" style="fill:none;stroke:#000000;stroke-linecap:square;"/>
   </g>
   <g id="line2d_6">
    <path clip-path="url(#p29b9823cd6)" d="M 39.828125 502.714306 
L 51.093079 502.325925 
L 74.455192 501.242708 
L 107.071852 499.480473 
L 148.663874 496.989091 
L 197.333593 493.838292 
L 254.204727 489.919344 
L 317.828239 485.29899 
L 386.791757 480.062775 
L 463.620109 473.996709 
L 544.386284 467.394465 
L 633.761683 459.855622 
L 684.465422 455.481503 
L 684.465422 455.481503 
" style="fill:none;stroke:#ffff00;stroke-linecap:square;"/>
   </g>
   <g id="line2d_7">
    <path clip-path="url(#p29b9823cd6)" d="M 39.828125 503.316048 
L 57.093088 503.175457 
L 77.60216 502.80472 
L 103.70513 502.100019 
L 132.218901 501.081092 
L 159.623243 499.885961 
L 187.371802 498.47969 
L 219.085181 496.648603 
L 250.368544 494.623151 
L 282.740187 492.31089 
L 314.639682 489.827507 
L 350.991536 486.760639 
L 385.719642 483.604601 
L 420.935642 480.186971 
L 459.742807 476.17617 
L 498.358037 471.938822 
L 538.157442 467.322257 
L 574.089658 462.942929 
L 611.971474 458.114356 
L 653.791339 452.537639 
L 684.465422 448.286533 
L 684.465422 448.286533 
" style="fill:none;stroke:#1e90ff;stroke-linecap:square;"/>
   </g>
   <g id="patch_3">
    <path d="M 26.935379 506.880452 
L 697.358168 506.880452 
" style="fill:none;stroke:#000000;stroke-linecap:square;stroke-linejoin:miter;stroke-width:0.8;"/>
   </g>
   <g id="patch_4">
    <path d="M 39.828125 516.138308 
L 39.828125 7.2 
" style="fill:none;stroke:#000000;stroke-linecap:square;stroke-linejoin:miter;stroke-width:0.8;"/>
   </g>
   <g id="matplotlib.axis_1">
    <g id="xtick_1">
     <g id="line2d_8">
      <defs>
       <path d="M 0 0 
L 0 -4 
" id="m8cb51687a9" style="stroke:#000000;stroke-width:0.5;"/>
      </defs>
      <g>
       <use style="stroke:#000000;stroke-width:0.5;" x="39.828125" xlink:href="#m8cb51687a9" y="506.880451625"/>
      </g>
     </g>
    </g>
    <g id="xtick_2">
     <g id="line2d_9">
      <g>
       <use style="stroke:#000000;stroke-width:0.5;" x="200.987449149" xlink:href="#m8cb51687a9" y="506.880451625"/>
      </g>
     </g>
     <g id="text_1">
      <!-- 500 -->
      <defs>
       <path d="M 31.78125 66.40625 
Q 24.171875 66.40625 20.328125 58.90625 
Q 16.5 51.421875 16.5 36.375 
Q 16.5 21.390625 20.328125 13.890625 
Q 24.171875 6.390625 31.78125 6.390625 
Q 39.453125 6.390625 43.28125 13.890625 
Q 47.125 21.390625 47.125 36.375 
Q 47.125 51.421875 43.28125 58.90625 
Q 39.453125 66.40625 31.78125 66.40625 
M 31.78125 74.21875 
Q 44.046875 74.21875 50.515625 64.515625 
Q 56.984375 54.828125 56.984375 36.375 
Q 56.984375 17.96875 50.515625 8.265625 
Q 44.046875 -1.421875 31.78125 -1.421875 
Q 19.53125 -1.421875 13.0625 8.265625 
Q 6.59375 17.96875 6.59375 36.375 
Q 6.59375 54.828125 13.0625 64.515625 
Q 19.53125 74.21875 31.78125 74.21875 
" id="BitstreamVeraSans-Roman-30"/>
       <path d="M 10.796875 72.90625 
L 49.515625 72.90625 
L 49.515625 64.59375 
L 19.828125 64.59375 
L 19.828125 46.734375 
Q 21.96875 47.46875 24.109375 47.828125 
Q 26.265625 48.1875 28.421875 48.1875 
Q 40.625 48.1875 47.75 41.5 
Q 54.890625 34.8125 54.890625 23.390625 
Q 54.890625 11.625 47.5625 5.09375 
Q 40.234375 -1.421875 26.90625 -1.421875 
Q 22.3125 -1.421875 17.546875 -0.640625 
Q 12.796875 0.140625 7.71875 1.703125 
L 7.71875 11.625 
Q 12.109375 9.234375 16.796875 8.0625 
Q 21.484375 6.890625 26.703125 6.890625 
Q 35.15625 6.890625 40.078125 11.328125 
Q 45.015625 15.765625 45.015625 23.390625 
Q 45.015625 31 40.078125 35.4375 
Q 35.15625 39.890625 26.703125 39.890625 
Q 22.75 39.890625 18.8125 39.015625 
Q 14.890625 38.140625 10.796875 36.28125 
z
" id="BitstreamVeraSans-Roman-35"/>
      </defs>
      <g transform="translate(191.443699149 518.478889125)scale(0.1 -0.1)">
       <use xlink:href="#BitstreamVeraSans-Roman-35"/>
       <use x="63.623046875" xlink:href="#BitstreamVeraSans-Roman-30"/>
       <use x="127.24609375" xlink:href="#BitstreamVeraSans-Roman-30"/>
      </g>
     </g>
    </g>
    <g id="xtick_3">
     <g id="line2d_10">
      <g>
       <use style="stroke:#000000;stroke-width:0.5;" x="362.146773299" xlink:href="#m8cb51687a9" y="506.880451625"/>
      </g>
     </g>
     <g id="text_2">
      <!-- 1000 -->
      <defs>
       <path d="M 12.40625 8.296875 
L 28.515625 8.296875 
L 28.515625 63.921875 
L 10.984375 60.40625 
L 10.984375 69.390625 
L 28.421875 72.90625 
L 38.28125 72.90625 
L 38.28125 8.296875 
L 54.390625 8.296875 
L 54.390625 0 
L 12.40625 0 
z
" id="BitstreamVeraSans-Roman-31"/>
      </defs>
      <g transform="translate(349.421773299 518.478889125)scale(0.1 -0.1)">
       <use xlink:href="#BitstreamVeraSans-Roman-31"/>
       <use x="63.623046875" xlink:href="#BitstreamVeraSans-Roman-30"/>
       <use x="127.24609375" xlink:href="#BitstreamVeraSans-Roman-30"/>
       <use x="190.869140625" xlink:href="#BitstreamVeraSans-Roman-30"/>
      </g>
     </g>
    </g>
    <g id="xtick_4">
     <g id="line2d_11">
      <g>
       <use style="stroke:#000000;stroke-width:0.5;" x="523.306097448" xlink:href="#m8cb51687a9" y="506.880451625"/>
      </g>
     </g>
     <g id="text_3">
      <!-- 1500 -->
      <g transform="translate(510.581097448 518.478889125)scale(0.1 -0.1)">
       <use xlink:href="#BitstreamVeraSans-Roman-31"/>
       <use x="63.623046875" xlink:href="#BitstreamVeraSans-Roman-35"/>
       <use x="127.24609375" xlink:href="#BitstreamVeraSans-Roman-30"/>
       <use x="190.869140625" xlink:href="#BitstreamVeraSans-Roman-30"/>
      </g>
     </g>
    </g>
    <g id="xtick_5">
     <g id="line2d_12">
      <g>
       <use style="stroke:#000000;stroke-width:0.5;" x="684.465421598" xlink:href="#m8cb51687a9" y="506.880451625"/>
      </g>
     </g>
     <g id="text_4">
      <!-- 2000 -->
      <defs>
       <path d="M 19.1875 8.296875 
L 53.609375 8.296875 
L 53.609375 0 
L 7.328125 0 
L 7.328125 8.296875 
Q 12.9375 14.109375 22.625 23.890625 
Q 32.328125 33.6875 34.8125 36.53125 
Q 39.546875 41.84375 41.421875 45.53125 
Q 43.3125 49.21875 43.3125 52.78125 
Q 43.3125 58.59375 39.234375 62.25 
Q 35.15625 65.921875 28.609375 65.921875 
Q 23.96875 65.921875 18.8125 64.3125 
Q 13.671875 62.703125 7.8125 59.421875 
L 7.8125 69.390625 
Q 13.765625 71.78125 18.9375 73 
Q 24.125 74.21875 28.421875 74.21875 
Q 39.75 74.21875 46.484375 68.546875 
Q 53.21875 62.890625 53.21875 53.421875 
Q 53.21875 48.921875 51.53125 44.890625 
Q 49.859375 40.875 45.40625 35.40625 
Q 44.1875 33.984375 37.640625 27.21875 
Q 31.109375 20.453125 19.1875 8.296875 
" id="BitstreamVeraSans-Roman-32"/>
      </defs>
      <g transform="translate(671.740421598 518.478889125)scale(0.1 -0.1)">
       <use xlink:href="#BitstreamVeraSans-Roman-32"/>
       <use x="63.623046875" xlink:href="#BitstreamVeraSans-Roman-30"/>
       <use x="127.24609375" xlink:href="#BitstreamVeraSans-Roman-30"/>
       <use x="190.869140625" xlink:href="#BitstreamVeraSans-Roman-30"/>
      </g>
     </g>
    </g>
    <g id="xtick_6">
     <g id="line2d_13">
      <defs>
       <path d="M 0 0 
L 0 -2 
" id="m040f84f433" style="stroke:#000000;stroke-width:0.5;"/>
      </defs>
      <g>
       <use style="stroke:#000000;stroke-width:0.5;" x="72.0599898299" xlink:href="#m040f84f433" y="506.880451625"/>
      </g>
     </g>
    </g>
    <g id="xtick_7">
     <g id="line2d_14">
      <g>
       <use style="stroke:#000000;stroke-width:0.5;" x="104.29185466" xlink:href="#m040f84f433" y="506.880451625"/>
      </g>
     </g>
    </g>
    <g id="xtick_8">
     <g id="line2d_15">
      <g>
       <use style="stroke:#000000;stroke-width:0.5;" x="136.52371949" xlink:href="#m040f84f433" y="506.880451625"/>
      </g>
     </g>
    </g>
    <g id="xtick_9">
     <g id="line2d_16">
      <g>
       <use style="stroke:#000000;stroke-width:0.5;" x="168.75558432" xlink:href="#m040f84f433" y="506.880451625"/>
      </g>
     </g>
    </g>
    <g id="xtick_10">
     <g id="line2d_17">
      <g>
       <use style="stroke:#000000;stroke-width:0.5;" x="233.219313979" xlink:href="#m040f84f433" y="506.880451625"/>
      </g>
     </g>
    </g>
    <g id="xtick_11">
     <g id="line2d_18">
      <g>
       <use style="stroke:#000000;stroke-width:0.5;" x="265.451178809" xlink:href="#m040f84f433" y="506.880451625"/>
      </g>
     </g>
    </g>
    <g id="xtick_12">
     <g id="line2d_19">
      <g>
       <use style="stroke:#000000;stroke-width:0.5;" x="297.683043639" xlink:href="#m040f84f433" y="506.880451625"/>
      </g>
     </g>
    </g>
    <g id="xtick_13">
     <g id="line2d_20">
      <g>
       <use style="stroke:#000000;stroke-width:0.5;" x="329.914908469" xlink:href="#m040f84f433" y="506.880451625"/>
      </g>
     </g>
    </g>
    <g id="xtick_14">
     <g id="line2d_21">
      <g>
       <use style="stroke:#000000;stroke-width:0.5;" x="394.378638129" xlink:href="#m040f84f433" y="506.880451625"/>
      </g>
     </g>
    </g>
    <g id="xtick_15">
     <g id="line2d_22">
      <g>
       <use style="stroke:#000000;stroke-width:0.5;" x="426.610502959" xlink:href="#m040f84f433" y="506.880451625"/>
      </g>
     </g>
    </g>
    <g id="xtick_16">
     <g id="line2d_23">
      <g>
       <use style="stroke:#000000;stroke-width:0.5;" x="458.842367788" xlink:href="#m040f84f433" y="506.880451625"/>
      </g>
     </g>
    </g>
    <g id="xtick_17">
     <g id="line2d_24">
      <g>
       <use style="stroke:#000000;stroke-width:0.5;" x="491.074232618" xlink:href="#m040f84f433" y="506.880451625"/>
      </g>
     </g>
    </g>
    <g id="xtick_18">
     <g id="line2d_25">
      <g>
       <use style="stroke:#000000;stroke-width:0.5;" x="555.537962278" xlink:href="#m040f84f433" y="506.880451625"/>
      </g>
     </g>
    </g>
    <g id="xtick_19">
     <g id="line2d_26">
      <g>
       <use style="stroke:#000000;stroke-width:0.5;" x="587.769827108" xlink:href="#m040f84f433" y="506.880451625"/>
      </g>
     </g>
    </g>
    <g id="xtick_20">
     <g id="line2d_27">
      <g>
       <use style="stroke:#000000;stroke-width:0.5;" x="620.001691938" xlink:href="#m040f84f433" y="506.880451625"/>
      </g>
     </g>
    </g>
    <g id="xtick_21">
     <g id="line2d_28">
      <g>
       <use style="stroke:#000000;stroke-width:0.5;" x="652.233556768" xlink:href="#m040f84f433" y="506.880451625"/>
      </g>
     </g>
    </g>
   </g>
   <g id="matplotlib.axis_2">
    <g id="ytick_1">
     <g id="line2d_29">
      <defs>
       <path d="M 0 0 
L 4 0 
" id="m4668e1a030" style="stroke:#000000;stroke-width:0.5;"/>
      </defs>
      <g>
       <use style="stroke:#000000;stroke-width:0.5;" x="39.828125" xlink:href="#m4668e1a030" y="506.880451625"/>
      </g>
     </g>
    </g>
    <g id="ytick_2">
     <g id="line2d_30">
      <g>
       <use style="stroke:#000000;stroke-width:0.5;" x="39.828125" xlink:href="#m4668e1a030" y="384.407157506"/>
      </g>
     </g>
     <g id="text_5">
      <!-- 0.005 -->
      <defs>
       <path d="M 10.6875 12.40625 
L 21 12.40625 
L 21 0 
L 10.6875 0 
z
" id="BitstreamVeraSans-Roman-2e"/>
      </defs>
      <g transform="translate(7.2 387.166532506)scale(0.1 -0.1)">
       <use xlink:href="#BitstreamVeraSans-Roman-30"/>
       <use x="63.623046875" xlink:href="#BitstreamVeraSans-Roman-2e"/>
       <use x="95.41015625" xlink:href="#BitstreamVeraSans-Roman-30"/>
       <use x="159.033203125" xlink:href="#BitstreamVeraSans-Roman-30"/>
       <use x="222.65625" xlink:href="#BitstreamVeraSans-Roman-35"/>
      </g>
     </g>
    </g>
    <g id="ytick_3">
     <g id="line2d_31">
      <g>
       <use style="stroke:#000000;stroke-width:0.5;" x="39.828125" xlink:href="#m4668e1a030" y="261.933863387"/>
      </g>
     </g>
     <g id="text_6">
      <!-- 0.01 -->
      <g transform="translate(13.5625 264.693238387)scale(0.1 -0.1)">
       <use xlink:href="#BitstreamVeraSans-Roman-30"/>
       <use x="63.623046875" xlink:href="#BitstreamVeraSans-Roman-2e"/>
       <use x="95.41015625" xlink:href="#BitstreamVeraSans-Roman-30"/>
       <use x="159.033203125" xlink:href="#BitstreamVeraSans-Roman-31"/>
      </g>
     </g>
    </g>
    <g id="ytick_4">
     <g id="line2d_32">
      <g>
       <use style="stroke:#000000;stroke-width:0.5;" x="39.828125" xlink:href="#m4668e1a030" y="139.460569268"/>
      </g>
     </g>
     <g id="text_7">
      <!-- 0.015 -->
      <g transform="translate(7.2 142.219944268)scale(0.1 -0.1)">
       <use xlink:href="#BitstreamVeraSans-Roman-30"/>
       <use x="63.623046875" xlink:href="#BitstreamVeraSans-Roman-2e"/>
       <use x="95.41015625" xlink:href="#BitstreamVeraSans-Roman-30"/>
       <use x="159.033203125" xlink:href="#BitstreamVeraSans-Roman-31"/>
       <use x="222.65625" xlink:href="#BitstreamVeraSans-Roman-35"/>
      </g>
     </g>
    </g>
    <g id="ytick_5">
     <g id="line2d_33">
      <g>
       <use style="stroke:#000000;stroke-width:0.5;" x="39.828125" xlink:href="#m4668e1a030" y="16.9872751485"/>
      </g>
     </g>
     <g id="text_8">
      <!-- 0.02 -->
      <g transform="translate(13.5625 19.7466501485)scale(0.1 -0.1)">
       <use xlink:href="#BitstreamVeraSans-Roman-30"/>
       <use x="63.623046875" xlink:href="#BitstreamVeraSans-Roman-2e"/>
       <use x="95.41015625" xlink:href="#BitstreamVeraSans-Roman-30"/>
       <use x="159.033203125" xlink:href="#BitstreamVeraSans-Roman-32"/>
      </g>
     </g>
    </g>
    <g id="ytick_6">
     <g id="line2d_34">
      <defs>
       <path d="M 0 0 
L 2 0 
" id="mff0120646c" style="stroke:#000000;stroke-width:0.5;"/>
      </defs>
      <g>
       <use style="stroke:#000000;stroke-width:0.5;" x="39.828125" xlink:href="#mff0120646c" y="482.385792802"/>
      </g>
     </g>
    </g>
    <g id="ytick_7">
     <g id="line2d_35">
      <g>
       <use style="stroke:#000000;stroke-width:0.5;" x="39.828125" xlink:href="#mff0120646c" y="457.891133978"/>
      </g>
     </g>
    </g>
    <g id="ytick_8">
     <g id="line2d_36">
      <g>
       <use style="stroke:#000000;stroke-width:0.5;" x="39.828125" xlink:href="#mff0120646c" y="433.396475154"/>
      </g>
     </g>
    </g>
    <g id="ytick_9">
     <g id="line2d_37">
      <g>
       <use style="stroke:#000000;stroke-width:0.5;" x="39.828125" xlink:href="#mff0120646c" y="408.90181633"/>
      </g>
     </g>
    </g>
    <g id="ytick_10">
     <g id="line2d_38">
      <g>
       <use style="stroke:#000000;stroke-width:0.5;" x="39.828125" xlink:href="#mff0120646c" y="359.912498682"/>
      </g>
     </g>
    </g>
    <g id="ytick_11">
     <g id="line2d_39">
      <g>
       <use style="stroke:#000000;stroke-width:0.5;" x="39.828125" xlink:href="#mff0120646c" y="335.417839859"/>
      </g>
     </g>
    </g>
    <g id="ytick_12">
     <g id="line2d_40">
      <g>
       <use style="stroke:#000000;stroke-width:0.5;" x="39.828125" xlink:href="#mff0120646c" y="310.923181035"/>
      </g>
     </g>
    </g>
    <g id="ytick_13">
     <g id="line2d_41">
      <g>
       <use style="stroke:#000000;stroke-width:0.5;" x="39.828125" xlink:href="#mff0120646c" y="286.428522211"/>
      </g>
     </g>
    </g>
    <g id="ytick_14">
     <g id="line2d_42">
      <g>
       <use style="stroke:#000000;stroke-width:0.5;" x="39.828125" xlink:href="#mff0120646c" y="261.933863387"/>
      </g>
     </g>
    </g>
    <g id="ytick_15">
     <g id="line2d_43">
      <g>
       <use style="stroke:#000000;stroke-width:0.5;" x="39.828125" xlink:href="#mff0120646c" y="237.439204563"/>
      </g>
     </g>
    </g>
    <g id="ytick_16">
     <g id="line2d_44">
      <g>
       <use style="stroke:#000000;stroke-width:0.5;" x="39.828125" xlink:href="#mff0120646c" y="212.944545739"/>
      </g>
     </g>
    </g>
    <g id="ytick_17">
     <g id="line2d_45">
      <g>
       <use style="stroke:#000000;stroke-width:0.5;" x="39.828125" xlink:href="#mff0120646c" y="188.449886915"/>
      </g>
     </g>
    </g>
    <g id="ytick_18">
     <g id="line2d_46">
      <g>
       <use style="stroke:#000000;stroke-width:0.5;" x="39.828125" xlink:href="#mff0120646c" y="163.955228092"/>
      </g>
     </g>
    </g>
    <g id="ytick_19">
     <g id="line2d_47">
      <g>
       <use style="stroke:#000000;stroke-width:0.5;" x="39.828125" xlink:href="#mff0120646c" y="114.965910444"/>
      </g>
     </g>
    </g>
    <g id="ytick_20">
     <g id="line2d_48">
      <g>
       <use style="stroke:#000000;stroke-width:0.5;" x="39.828125" xlink:href="#mff0120646c" y="90.4712516201"/>
      </g>
     </g>
    </g>
    <g id="ytick_21">
     <g id="line2d_49">
      <g>
       <use style="stroke:#000000;stroke-width:0.5;" x="39.828125" xlink:href="#mff0120646c" y="65.9765927962"/>
      </g>
     </g>
    </g>
    <g id="ytick_22">
     <g id="line2d_50">
      <g>
       <use style="stroke:#000000;stroke-width:0.5;" x="39.828125" xlink:href="#mff0120646c" y="41.4819339724"/>
      </g>
     </g>
    </g>
   </g>
   <g id="legend_1">
    <g id="patch_5">
     <path d="M 342.675043 113.67125 
L 693.358168 113.67125 
L 693.358168 15.2 
L 342.675043 15.2 
z
" style="fill:#4c4c4c;opacity:0.5;stroke:#4c4c4c;stroke-linejoin:miter;"/>
    </g>
    <g id="patch_6">
     <path d="M 340.675043 111.67125 
L 691.358168 111.67125 
L 691.358168 13.2 
L 340.675043 13.2 
z
" style="fill:#ffffff;stroke:#000000;stroke-linejoin:miter;"/>
    </g>
    <g id="line2d_51">
     <path d="M 351.475043 25.318125 
L 344.875043 25.318125 
" style="fill:none;stroke:#ff0000;stroke-linecap:square;"/>
    </g>
    <g id="line2d_52"/>
    <g id="text_9">
     <!-- Gauss_Legendre -->
     <defs>
      <path d="M 9.8125 72.90625 
L 19.671875 72.90625 
L 19.671875 8.296875 
L 55.171875 8.296875 
L 55.171875 0 
L 9.8125 0 
z
" id="BitstreamVeraSans-Roman-4c"/>
      <path d="M 50.984375 -16.609375 
L 50.984375 -23.578125 
L -0.984375 -23.578125 
L -0.984375 -16.609375 
z
" id="BitstreamVeraSans-Roman-5f"/>
      <path d="M 54.890625 33.015625 
L 54.890625 0 
L 45.90625 0 
L 45.90625 32.71875 
Q 45.90625 40.484375 42.875 44.328125 
Q 39.84375 48.1875 33.796875 48.1875 
Q 26.515625 48.1875 22.3125 43.546875 
Q 18.109375 38.921875 18.109375 30.90625 
L 18.109375 0 
L 9.078125 0 
L 9.078125 54.6875 
L 18.109375 54.6875 
L 18.109375 46.1875 
Q 21.34375 51.125 25.703125 53.5625 
Q 30.078125 56 35.796875 56 
Q 45.21875 56 50.046875 50.171875 
Q 54.890625 44.34375 54.890625 33.015625 
" id="BitstreamVeraSans-Roman-6e"/>
      <path d="M 41.109375 46.296875 
Q 39.59375 47.171875 37.8125 47.578125 
Q 36.03125 48 33.890625 48 
Q 26.265625 48 22.1875 43.046875 
Q 18.109375 38.09375 18.109375 28.8125 
L 18.109375 0 
L 9.078125 0 
L 9.078125 54.6875 
L 18.109375 54.6875 
L 18.109375 46.1875 
Q 20.953125 51.171875 25.484375 53.578125 
Q 30.03125 56 36.53125 56 
Q 37.453125 56 38.578125 55.875 
Q 39.703125 55.765625 41.0625 55.515625 
z
" id="BitstreamVeraSans-Roman-72"/>
      <path d="M 59.515625 10.40625 
L 59.515625 29.984375 
L 43.40625 29.984375 
L 43.40625 38.09375 
L 69.28125 38.09375 
L 69.28125 6.78125 
Q 63.578125 2.734375 56.6875 0.65625 
Q 49.8125 -1.421875 42 -1.421875 
Q 24.90625 -1.421875 15.25 8.5625 
Q 5.609375 18.5625 5.609375 36.375 
Q 5.609375 54.25 15.25 64.234375 
Q 24.90625 74.21875 42 74.21875 
Q 49.125 74.21875 55.546875 72.453125 
Q 61.96875 70.703125 67.390625 67.28125 
L 67.390625 56.78125 
Q 61.921875 61.421875 55.765625 63.765625 
Q 49.609375 66.109375 42.828125 66.109375 
Q 29.4375 66.109375 22.71875 58.640625 
Q 16.015625 51.171875 16.015625 36.375 
Q 16.015625 21.625 22.71875 14.15625 
Q 29.4375 6.6875 42.828125 6.6875 
Q 48.046875 6.6875 52.140625 7.59375 
Q 56.25 8.5 59.515625 10.40625 
" id="BitstreamVeraSans-Roman-47"/>
      <path d="M 56.203125 29.59375 
L 56.203125 25.203125 
L 14.890625 25.203125 
Q 15.484375 15.921875 20.484375 11.0625 
Q 25.484375 6.203125 34.421875 6.203125 
Q 39.59375 6.203125 44.453125 7.46875 
Q 49.3125 8.734375 54.109375 11.28125 
L 54.109375 2.78125 
Q 49.265625 0.734375 44.1875 -0.34375 
Q 39.109375 -1.421875 33.890625 -1.421875 
Q 20.796875 -1.421875 13.15625 6.1875 
Q 5.515625 13.8125 5.515625 26.8125 
Q 5.515625 40.234375 12.765625 48.109375 
Q 20.015625 56 32.328125 56 
Q 43.359375 56 49.78125 48.890625 
Q 56.203125 41.796875 56.203125 29.59375 
M 47.21875 32.234375 
Q 47.125 39.59375 43.09375 43.984375 
Q 39.0625 48.390625 32.421875 48.390625 
Q 24.90625 48.390625 20.390625 44.140625 
Q 15.875 39.890625 15.1875 32.171875 
z
" id="BitstreamVeraSans-Roman-65"/>
      <path d="M 45.40625 46.390625 
L 45.40625 75.984375 
L 54.390625 75.984375 
L 54.390625 0 
L 45.40625 0 
L 45.40625 8.203125 
Q 42.578125 3.328125 38.25 0.953125 
Q 33.9375 -1.421875 27.875 -1.421875 
Q 17.96875 -1.421875 11.734375 6.484375 
Q 5.515625 14.40625 5.515625 27.296875 
Q 5.515625 40.1875 11.734375 48.09375 
Q 17.96875 56 27.875 56 
Q 33.9375 56 38.25 53.625 
Q 42.578125 51.265625 45.40625 46.390625 
M 14.796875 27.296875 
Q 14.796875 17.390625 18.875 11.75 
Q 22.953125 6.109375 30.078125 6.109375 
Q 37.203125 6.109375 41.296875 11.75 
Q 45.40625 17.390625 45.40625 27.296875 
Q 45.40625 37.203125 41.296875 42.84375 
Q 37.203125 48.484375 30.078125 48.484375 
Q 22.953125 48.484375 18.875 42.84375 
Q 14.796875 37.203125 14.796875 27.296875 
" id="BitstreamVeraSans-Roman-64"/>
      <path d="M 45.40625 27.984375 
Q 45.40625 37.75 41.375 43.109375 
Q 37.359375 48.484375 30.078125 48.484375 
Q 22.859375 48.484375 18.828125 43.109375 
Q 14.796875 37.75 14.796875 27.984375 
Q 14.796875 18.265625 18.828125 12.890625 
Q 22.859375 7.515625 30.078125 7.515625 
Q 37.359375 7.515625 41.375 12.890625 
Q 45.40625 18.265625 45.40625 27.984375 
M 54.390625 6.78125 
Q 54.390625 -7.171875 48.1875 -13.984375 
Q 42 -20.796875 29.203125 -20.796875 
Q 24.46875 -20.796875 20.265625 -20.09375 
Q 16.0625 -19.390625 12.109375 -17.921875 
L 12.109375 -9.1875 
Q 16.0625 -11.328125 19.921875 -12.34375 
Q 23.78125 -13.375 27.78125 -13.375 
Q 36.625 -13.375 41.015625 -8.765625 
Q 45.40625 -4.15625 45.40625 5.171875 
L 45.40625 9.625 
Q 42.625 4.78125 38.28125 2.390625 
Q 33.9375 0 27.875 0 
Q 17.828125 0 11.671875 7.65625 
Q 5.515625 15.328125 5.515625 27.984375 
Q 5.515625 40.671875 11.671875 48.328125 
Q 17.828125 56 27.875 56 
Q 33.9375 56 38.28125 53.609375 
Q 42.625 51.21875 45.40625 46.390625 
L 45.40625 54.6875 
L 54.390625 54.6875 
z
" id="BitstreamVeraSans-Roman-67"/>
      <path d="M 8.5 21.578125 
L 8.5 54.6875 
L 17.484375 54.6875 
L 17.484375 21.921875 
Q 17.484375 14.15625 20.5 10.265625 
Q 23.53125 6.390625 29.59375 6.390625 
Q 36.859375 6.390625 41.078125 11.03125 
Q 45.3125 15.671875 45.3125 23.6875 
L 45.3125 54.6875 
L 54.296875 54.6875 
L 54.296875 0 
L 45.3125 0 
L 45.3125 8.40625 
Q 42.046875 3.421875 37.71875 1 
Q 33.40625 -1.421875 27.6875 -1.421875 
Q 18.265625 -1.421875 13.375 4.4375 
Q 8.5 10.296875 8.5 21.578125 
" id="BitstreamVeraSans-Roman-75"/>
      <path d="M 34.28125 27.484375 
Q 23.390625 27.484375 19.1875 25 
Q 14.984375 22.515625 14.984375 16.5 
Q 14.984375 11.71875 18.140625 8.90625 
Q 21.296875 6.109375 26.703125 6.109375 
Q 34.1875 6.109375 38.703125 11.40625 
Q 43.21875 16.703125 43.21875 25.484375 
L 43.21875 27.484375 
z
M 52.203125 31.203125 
L 52.203125 0 
L 43.21875 0 
L 43.21875 8.296875 
Q 40.140625 3.328125 35.546875 0.953125 
Q 30.953125 -1.421875 24.3125 -1.421875 
Q 15.921875 -1.421875 10.953125 3.296875 
Q 6 8.015625 6 15.921875 
Q 6 25.140625 12.171875 29.828125 
Q 18.359375 34.515625 30.609375 34.515625 
L 43.21875 34.515625 
L 43.21875 35.40625 
Q 43.21875 41.609375 39.140625 45 
Q 35.0625 48.390625 27.6875 48.390625 
Q 23 48.390625 18.546875 47.265625 
Q 14.109375 46.140625 10.015625 43.890625 
L 10.015625 52.203125 
Q 14.9375 54.109375 19.578125 55.046875 
Q 24.21875 56 28.609375 56 
Q 40.484375 56 46.34375 49.84375 
Q 52.203125 43.703125 52.203125 31.203125 
" id="BitstreamVeraSans-Roman-61"/>
      <path d="M 44.28125 53.078125 
L 44.28125 44.578125 
Q 40.484375 46.53125 36.375 47.5 
Q 32.28125 48.484375 27.875 48.484375 
Q 21.1875 48.484375 17.84375 46.4375 
Q 14.5 44.390625 14.5 40.28125 
Q 14.5 37.15625 16.890625 35.375 
Q 19.28125 33.59375 26.515625 31.984375 
L 29.59375 31.296875 
Q 39.15625 29.25 43.1875 25.515625 
Q 47.21875 21.78125 47.21875 15.09375 
Q 47.21875 7.46875 41.1875 3.015625 
Q 35.15625 -1.421875 24.609375 -1.421875 
Q 20.21875 -1.421875 15.453125 -0.5625 
Q 10.6875 0.296875 5.421875 2 
L 5.421875 11.28125 
Q 10.40625 8.6875 15.234375 7.390625 
Q 20.0625 6.109375 24.8125 6.109375 
Q 31.15625 6.109375 34.5625 8.28125 
Q 37.984375 10.453125 37.984375 14.40625 
Q 37.984375 18.0625 35.515625 20.015625 
Q 33.0625 21.96875 24.703125 23.78125 
L 21.578125 24.515625 
Q 13.234375 26.265625 9.515625 29.90625 
Q 5.8125 33.546875 5.8125 39.890625 
Q 5.8125 47.609375 11.28125 51.796875 
Q 16.75 56 26.8125 56 
Q 31.78125 56 36.171875 55.265625 
Q 40.578125 54.546875 44.28125 53.078125 
" id="BitstreamVeraSans-Roman-73"/>
     </defs>
     <g transform="translate(354.47504253 29.518125)scale(0.12 -0.12)">
      <use xlink:href="#BitstreamVeraSans-Roman-47"/>
      <use x="77.490234375" xlink:href="#BitstreamVeraSans-Roman-61"/>
      <use x="138.76953125" xlink:href="#BitstreamVeraSans-Roman-75"/>
      <use x="202.1484375" xlink:href="#BitstreamVeraSans-Roman-73"/>
      <use x="254.248046875" xlink:href="#BitstreamVeraSans-Roman-73"/>
      <use x="306.34765625" xlink:href="#BitstreamVeraSans-Roman-5f"/>
      <use x="356.34765625" xlink:href="#BitstreamVeraSans-Roman-4c"/>
      <use x="412.044921875" xlink:href="#BitstreamVeraSans-Roman-65"/>
      <use x="473.568359375" xlink:href="#BitstreamVeraSans-Roman-67"/>
      <use x="537.044921875" xlink:href="#BitstreamVeraSans-Roman-65"/>
      <use x="598.568359375" xlink:href="#BitstreamVeraSans-Roman-6e"/>
      <use x="661.947265625" xlink:href="#BitstreamVeraSans-Roman-64"/>
      <use x="725.423828125" xlink:href="#BitstreamVeraSans-Roman-72"/>
      <use x="766.505859375" xlink:href="#BitstreamVeraSans-Roman-65"/>
     </g>
    </g>
    <g id="line2d_53">
     <path d="M 351.475043 37.505625 
L 344.875043 37.505625 
" style="fill:none;stroke:#0000ff;stroke-linecap:square;"/>
    </g>
    <g id="line2d_54"/>
    <g id="text_10">
     <!-- Reverse_Tan -->
     <defs>
      <path d="M 2.984375 54.6875 
L 12.5 54.6875 
L 29.59375 8.796875 
L 46.6875 54.6875 
L 56.203125 54.6875 
L 35.6875 0 
L 23.484375 0 
z
" id="BitstreamVeraSans-Roman-76"/>
      <path d="M 44.390625 34.1875 
Q 47.5625 33.109375 50.5625 29.59375 
Q 53.5625 26.078125 56.59375 19.921875 
L 66.609375 0 
L 56 0 
L 46.6875 18.703125 
Q 43.0625 26.03125 39.671875 28.421875 
Q 36.28125 30.8125 30.421875 30.8125 
L 19.671875 30.8125 
L 19.671875 0 
L 9.8125 0 
L 9.8125 72.90625 
L 32.078125 72.90625 
Q 44.578125 72.90625 50.734375 67.671875 
Q 56.890625 62.453125 56.890625 51.90625 
Q 56.890625 45.015625 53.6875 40.46875 
Q 50.484375 35.9375 44.390625 34.1875 
M 19.671875 64.796875 
L 19.671875 38.921875 
L 32.078125 38.921875 
Q 39.203125 38.921875 42.84375 42.21875 
Q 46.484375 45.515625 46.484375 51.90625 
Q 46.484375 58.296875 42.84375 61.546875 
Q 39.203125 64.796875 32.078125 64.796875 
z
" id="BitstreamVeraSans-Roman-52"/>
      <path d="M -0.296875 72.90625 
L 61.375 72.90625 
L 61.375 64.59375 
L 35.5 64.59375 
L 35.5 0 
L 25.59375 0 
L 25.59375 64.59375 
L -0.296875 64.59375 
z
" id="BitstreamVeraSans-Roman-54"/>
     </defs>
     <g transform="translate(354.47504253 41.705625)scale(0.12 -0.12)">
      <use xlink:href="#BitstreamVeraSans-Roman-52"/>
      <use x="69.419921875" xlink:href="#BitstreamVeraSans-Roman-65"/>
      <use x="130.943359375" xlink:href="#BitstreamVeraSans-Roman-76"/>
      <use x="190.123046875" xlink:href="#BitstreamVeraSans-Roman-65"/>
      <use x="251.646484375" xlink:href="#BitstreamVeraSans-Roman-72"/>
      <use x="292.759765625" xlink:href="#BitstreamVeraSans-Roman-73"/>
      <use x="344.859375" xlink:href="#BitstreamVeraSans-Roman-65"/>
      <use x="406.3828125" xlink:href="#BitstreamVeraSans-Roman-5f"/>
      <use x="456.3828125" xlink:href="#BitstreamVeraSans-Roman-54"/>
      <use x="517.216796875" xlink:href="#BitstreamVeraSans-Roman-61"/>
      <use x="578.49609375" xlink:href="#BitstreamVeraSans-Roman-6e"/>
     </g>
    </g>
    <g id="line2d_55">
     <path d="M 351.475043 49.693125 
L 344.875043 49.693125 
" style="fill:none;stroke:#008000;stroke-linecap:square;"/>
    </g>
    <g id="line2d_56"/>
    <g id="text_11">
     <!-- Jeremy Gibbons's Unbounded Spigot -->
     <defs>
      <path id="BitstreamVeraSans-Roman-20"/>
      <path d="M 17.921875 72.90625 
L 17.921875 45.796875 
L 9.625 45.796875 
L 9.625 72.90625 
z
" id="BitstreamVeraSans-Roman-27"/>
      <path d="M 9.8125 72.90625 
L 19.671875 72.90625 
L 19.671875 5.078125 
Q 19.671875 -8.109375 14.671875 -14.0625 
Q 9.671875 -20.015625 -1.421875 -20.015625 
L -5.171875 -20.015625 
L -5.171875 -11.71875 
L -2.09375 -11.71875 
Q 4.4375 -11.71875 7.125 -8.046875 
Q 9.8125 -4.390625 9.8125 5.078125 
z
" id="BitstreamVeraSans-Roman-4a"/>
      <path d="M 52 44.1875 
Q 55.375 50.25 60.0625 53.125 
Q 64.75 56 71.09375 56 
Q 79.640625 56 84.28125 50.015625 
Q 88.921875 44.046875 88.921875 33.015625 
L 88.921875 0 
L 79.890625 0 
L 79.890625 32.71875 
Q 79.890625 40.578125 77.09375 44.375 
Q 74.3125 48.1875 68.609375 48.1875 
Q 61.625 48.1875 57.5625 43.546875 
Q 53.515625 38.921875 53.515625 30.90625 
L 53.515625 0 
L 44.484375 0 
L 44.484375 32.71875 
Q 44.484375 40.625 41.703125 44.40625 
Q 38.921875 48.1875 33.109375 48.1875 
Q 26.21875 48.1875 22.15625 43.53125 
Q 18.109375 38.875 18.109375 30.90625 
L 18.109375 0 
L 9.078125 0 
L 9.078125 54.6875 
L 18.109375 54.6875 
L 18.109375 46.1875 
Q 21.1875 51.21875 25.484375 53.609375 
Q 29.78125 56 35.6875 56 
Q 41.65625 56 45.828125 52.96875 
Q 50 49.953125 52 44.1875 
" id="BitstreamVeraSans-Roman-6d"/>
      <path d="M 30.609375 48.390625 
Q 23.390625 48.390625 19.1875 42.75 
Q 14.984375 37.109375 14.984375 27.296875 
Q 14.984375 17.484375 19.15625 11.84375 
Q 23.34375 6.203125 30.609375 6.203125 
Q 37.796875 6.203125 41.984375 11.859375 
Q 46.1875 17.53125 46.1875 27.296875 
Q 46.1875 37.015625 41.984375 42.703125 
Q 37.796875 48.390625 30.609375 48.390625 
M 30.609375 56 
Q 42.328125 56 49.015625 48.375 
Q 55.71875 40.765625 55.71875 27.296875 
Q 55.71875 13.875 49.015625 6.21875 
Q 42.328125 -1.421875 30.609375 -1.421875 
Q 18.84375 -1.421875 12.171875 6.21875 
Q 5.515625 13.875 5.515625 27.296875 
Q 5.515625 40.765625 12.171875 48.375 
Q 18.84375 56 30.609375 56 
" id="BitstreamVeraSans-Roman-6f"/>
      <path d="M 53.515625 70.515625 
L 53.515625 60.890625 
Q 47.90625 63.578125 42.921875 64.890625 
Q 37.9375 66.21875 33.296875 66.21875 
Q 25.25 66.21875 20.875 63.09375 
Q 16.5 59.96875 16.5 54.203125 
Q 16.5 49.359375 19.40625 46.890625 
Q 22.3125 44.4375 30.421875 42.921875 
L 36.375 41.703125 
Q 47.40625 39.59375 52.65625 34.296875 
Q 57.90625 29 57.90625 20.125 
Q 57.90625 9.515625 50.796875 4.046875 
Q 43.703125 -1.421875 29.984375 -1.421875 
Q 24.8125 -1.421875 18.96875 -0.25 
Q 13.140625 0.921875 6.890625 3.21875 
L 6.890625 13.375 
Q 12.890625 10.015625 18.65625 8.296875 
Q 24.421875 6.59375 29.984375 6.59375 
Q 38.421875 6.59375 43.015625 9.90625 
Q 47.609375 13.234375 47.609375 19.390625 
Q 47.609375 24.75 44.3125 27.78125 
Q 41.015625 30.8125 33.5 32.328125 
L 27.484375 33.5 
Q 16.453125 35.6875 11.515625 40.375 
Q 6.59375 45.0625 6.59375 53.421875 
Q 6.59375 63.09375 13.40625 68.65625 
Q 20.21875 74.21875 32.171875 74.21875 
Q 37.3125 74.21875 42.625 73.28125 
Q 47.953125 72.359375 53.515625 70.515625 
" id="BitstreamVeraSans-Roman-53"/>
      <path d="M 9.421875 54.6875 
L 18.40625 54.6875 
L 18.40625 0 
L 9.421875 0 
z
M 9.421875 75.984375 
L 18.40625 75.984375 
L 18.40625 64.59375 
L 9.421875 64.59375 
z
" id="BitstreamVeraSans-Roman-69"/>
      <path d="M 8.6875 72.90625 
L 18.609375 72.90625 
L 18.609375 28.609375 
Q 18.609375 16.890625 22.84375 11.734375 
Q 27.09375 6.59375 36.625 6.59375 
Q 46.09375 6.59375 50.34375 11.734375 
Q 54.59375 16.890625 54.59375 28.609375 
L 54.59375 72.90625 
L 64.5 72.90625 
L 64.5 27.390625 
Q 64.5 13.140625 57.4375 5.859375 
Q 50.390625 -1.421875 36.625 -1.421875 
Q 22.796875 -1.421875 15.734375 5.859375 
Q 8.6875 13.140625 8.6875 27.390625 
z
" id="BitstreamVeraSans-Roman-55"/>
      <path d="M 32.171875 -5.078125 
Q 28.375 -14.84375 24.75 -17.8125 
Q 21.140625 -20.796875 15.09375 -20.796875 
L 7.90625 -20.796875 
L 7.90625 -13.28125 
L 13.1875 -13.28125 
Q 16.890625 -13.28125 18.9375 -11.515625 
Q 21 -9.765625 23.484375 -3.21875 
L 25.09375 0.875 
L 2.984375 54.6875 
L 12.5 54.6875 
L 29.59375 11.921875 
L 46.6875 54.6875 
L 56.203125 54.6875 
z
" id="BitstreamVeraSans-Roman-79"/>
      <path d="M 18.3125 70.21875 
L 18.3125 54.6875 
L 36.8125 54.6875 
L 36.8125 47.703125 
L 18.3125 47.703125 
L 18.3125 18.015625 
Q 18.3125 11.328125 20.140625 9.421875 
Q 21.96875 7.515625 27.59375 7.515625 
L 36.8125 7.515625 
L 36.8125 0 
L 27.59375 0 
Q 17.1875 0 13.234375 3.875 
Q 9.28125 7.765625 9.28125 18.015625 
L 9.28125 47.703125 
L 2.6875 47.703125 
L 2.6875 54.6875 
L 9.28125 54.6875 
L 9.28125 70.21875 
z
" id="BitstreamVeraSans-Roman-74"/>
      <path d="M 18.109375 8.203125 
L 18.109375 -20.796875 
L 9.078125 -20.796875 
L 9.078125 54.6875 
L 18.109375 54.6875 
L 18.109375 46.390625 
Q 20.953125 51.265625 25.265625 53.625 
Q 29.59375 56 35.59375 56 
Q 45.5625 56 51.78125 48.09375 
Q 58.015625 40.1875 58.015625 27.296875 
Q 58.015625 14.40625 51.78125 6.484375 
Q 45.5625 -1.421875 35.59375 -1.421875 
Q 29.59375 -1.421875 25.265625 0.953125 
Q 20.953125 3.328125 18.109375 8.203125 
M 48.6875 27.296875 
Q 48.6875 37.203125 44.609375 42.84375 
Q 40.53125 48.484375 33.40625 48.484375 
Q 26.265625 48.484375 22.1875 42.84375 
Q 18.109375 37.203125 18.109375 27.296875 
Q 18.109375 17.390625 22.1875 11.75 
Q 26.265625 6.109375 33.40625 6.109375 
Q 40.53125 6.109375 44.609375 11.75 
Q 48.6875 17.390625 48.6875 27.296875 
" id="BitstreamVeraSans-Roman-70"/>
      <path d="M 48.6875 27.296875 
Q 48.6875 37.203125 44.609375 42.84375 
Q 40.53125 48.484375 33.40625 48.484375 
Q 26.265625 48.484375 22.1875 42.84375 
Q 18.109375 37.203125 18.109375 27.296875 
Q 18.109375 17.390625 22.1875 11.75 
Q 26.265625 6.109375 33.40625 6.109375 
Q 40.53125 6.109375 44.609375 11.75 
Q 48.6875 17.390625 48.6875 27.296875 
M 18.109375 46.390625 
Q 20.953125 51.265625 25.265625 53.625 
Q 29.59375 56 35.59375 56 
Q 45.5625 56 51.78125 48.09375 
Q 58.015625 40.1875 58.015625 27.296875 
Q 58.015625 14.40625 51.78125 6.484375 
Q 45.5625 -1.421875 35.59375 -1.421875 
Q 29.59375 -1.421875 25.265625 0.953125 
Q 20.953125 3.328125 18.109375 8.203125 
L 18.109375 0 
L 9.078125 0 
L 9.078125 75.984375 
L 18.109375 75.984375 
z
" id="BitstreamVeraSans-Roman-62"/>
     </defs>
     <g transform="translate(354.47504253 53.893125)scale(0.12 -0.12)">
      <use xlink:href="#BitstreamVeraSans-Roman-4a"/>
      <use x="29.4921875" xlink:href="#BitstreamVeraSans-Roman-65"/>
      <use x="91.015625" xlink:href="#BitstreamVeraSans-Roman-72"/>
      <use x="132.09765625" xlink:href="#BitstreamVeraSans-Roman-65"/>
      <use x="193.62109375" xlink:href="#BitstreamVeraSans-Roman-6d"/>
      <use x="291.033203125" xlink:href="#BitstreamVeraSans-Roman-79"/>
      <use x="350.212890625" xlink:href="#BitstreamVeraSans-Roman-20"/>
      <use x="382.0" xlink:href="#BitstreamVeraSans-Roman-47"/>
      <use x="459.490234375" xlink:href="#BitstreamVeraSans-Roman-69"/>
      <use x="487.2734375" xlink:href="#BitstreamVeraSans-Roman-62"/>
      <use x="550.75" xlink:href="#BitstreamVeraSans-Roman-62"/>
      <use x="614.2265625" xlink:href="#BitstreamVeraSans-Roman-6f"/>
      <use x="675.408203125" xlink:href="#BitstreamVeraSans-Roman-6e"/>
      <use x="738.787109375" xlink:href="#BitstreamVeraSans-Roman-73"/>
      <use x="790.88671875" xlink:href="#BitstreamVeraSans-Roman-27"/>
      <use x="818.376953125" xlink:href="#BitstreamVeraSans-Roman-73"/>
      <use x="870.4765625" xlink:href="#BitstreamVeraSans-Roman-20"/>
      <use x="902.263671875" xlink:href="#BitstreamVeraSans-Roman-55"/>
      <use x="975.45703125" xlink:href="#BitstreamVeraSans-Roman-6e"/>
      <use x="1038.8359375" xlink:href="#BitstreamVeraSans-Roman-62"/>
      <use x="1102.3125" xlink:href="#BitstreamVeraSans-Roman-6f"/>
      <use x="1163.49414062" xlink:href="#BitstreamVeraSans-Roman-75"/>
      <use x="1226.87304688" xlink:href="#BitstreamVeraSans-Roman-6e"/>
      <use x="1290.25195312" xlink:href="#BitstreamVeraSans-Roman-64"/>
      <use x="1353.72851562" xlink:href="#BitstreamVeraSans-Roman-65"/>
      <use x="1415.25195312" xlink:href="#BitstreamVeraSans-Roman-64"/>
      <use x="1478.72851562" xlink:href="#BitstreamVeraSans-Roman-20"/>
      <use x="1510.515625" xlink:href="#BitstreamVeraSans-Roman-53"/>
      <use x="1573.9921875" xlink:href="#BitstreamVeraSans-Roman-70"/>
      <use x="1637.46875" xlink:href="#BitstreamVeraSans-Roman-69"/>
      <use x="1665.25195312" xlink:href="#BitstreamVeraSans-Roman-67"/>
      <use x="1728.72851562" xlink:href="#BitstreamVeraSans-Roman-6f"/>
      <use x="1789.91015625" xlink:href="#BitstreamVeraSans-Roman-74"/>
     </g>
    </g>
    <g id="line2d_57">
     <path d="M 351.475043 61.546875 
L 344.875043 61.546875 
" style="fill:none;stroke:#ffa500;stroke-linecap:square;"/>
    </g>
    <g id="line2d_58"/>
    <g id="text_12">
     <!-- Stanley Rabinowitz and Stan Wagon's spigot algorithm -->
     <defs>
      <path d="M 4.203125 54.6875 
L 13.1875 54.6875 
L 24.421875 12.015625 
L 35.59375 54.6875 
L 46.1875 54.6875 
L 57.421875 12.015625 
L 68.609375 54.6875 
L 77.59375 54.6875 
L 63.28125 0 
L 52.6875 0 
L 40.921875 44.828125 
L 29.109375 0 
L 18.5 0 
z
" id="BitstreamVeraSans-Roman-77"/>
      <path d="M 3.328125 72.90625 
L 13.28125 72.90625 
L 28.609375 11.28125 
L 43.890625 72.90625 
L 54.984375 72.90625 
L 70.3125 11.28125 
L 85.59375 72.90625 
L 95.609375 72.90625 
L 77.296875 0 
L 64.890625 0 
L 49.515625 63.28125 
L 33.984375 0 
L 21.578125 0 
z
" id="BitstreamVeraSans-Roman-57"/>
      <path d="M 54.890625 33.015625 
L 54.890625 0 
L 45.90625 0 
L 45.90625 32.71875 
Q 45.90625 40.484375 42.875 44.328125 
Q 39.84375 48.1875 33.796875 48.1875 
Q 26.515625 48.1875 22.3125 43.546875 
Q 18.109375 38.921875 18.109375 30.90625 
L 18.109375 0 
L 9.078125 0 
L 9.078125 75.984375 
L 18.109375 75.984375 
L 18.109375 46.1875 
Q 21.34375 51.125 25.703125 53.5625 
Q 30.078125 56 35.796875 56 
Q 45.21875 56 50.046875 50.171875 
Q 54.890625 44.34375 54.890625 33.015625 
" id="BitstreamVeraSans-Roman-68"/>
      <path d="M 9.421875 75.984375 
L 18.40625 75.984375 
L 18.40625 0 
L 9.421875 0 
z
" id="BitstreamVeraSans-Roman-6c"/>
      <path d="M 5.515625 54.6875 
L 48.1875 54.6875 
L 48.1875 46.484375 
L 14.40625 7.171875 
L 48.1875 7.171875 
L 48.1875 0 
L 4.296875 0 
L 4.296875 8.203125 
L 38.09375 47.515625 
L 5.515625 47.515625 
z
" id="BitstreamVeraSans-Roman-7a"/>
     </defs>
     <g transform="translate(354.47504253 65.746875)scale(0.12 -0.12)">
      <use xlink:href="#BitstreamVeraSans-Roman-53"/>
      <use x="63.4765625" xlink:href="#BitstreamVeraSans-Roman-74"/>
      <use x="102.685546875" xlink:href="#BitstreamVeraSans-Roman-61"/>
      <use x="163.96484375" xlink:href="#BitstreamVeraSans-Roman-6e"/>
      <use x="227.34375" xlink:href="#BitstreamVeraSans-Roman-6c"/>
      <use x="255.126953125" xlink:href="#BitstreamVeraSans-Roman-65"/>
      <use x="316.650390625" xlink:href="#BitstreamVeraSans-Roman-79"/>
      <use x="375.830078125" xlink:href="#BitstreamVeraSans-Roman-20"/>
      <use x="407.6171875" xlink:href="#BitstreamVeraSans-Roman-52"/>
      <use x="477.068359375" xlink:href="#BitstreamVeraSans-Roman-61"/>
      <use x="538.34765625" xlink:href="#BitstreamVeraSans-Roman-62"/>
      <use x="601.82421875" xlink:href="#BitstreamVeraSans-Roman-69"/>
      <use x="629.607421875" xlink:href="#BitstreamVeraSans-Roman-6e"/>
      <use x="692.986328125" xlink:href="#BitstreamVeraSans-Roman-6f"/>
      <use x="754.16796875" xlink:href="#BitstreamVeraSans-Roman-77"/>
      <use x="835.955078125" xlink:href="#BitstreamVeraSans-Roman-69"/>
      <use x="863.73828125" xlink:href="#BitstreamVeraSans-Roman-74"/>
      <use x="902.947265625" xlink:href="#BitstreamVeraSans-Roman-7a"/>
      <use x="955.4375" xlink:href="#BitstreamVeraSans-Roman-20"/>
      <use x="987.224609375" xlink:href="#BitstreamVeraSans-Roman-61"/>
      <use x="1048.50390625" xlink:href="#BitstreamVeraSans-Roman-6e"/>
      <use x="1111.8828125" xlink:href="#BitstreamVeraSans-Roman-64"/>
      <use x="1175.359375" xlink:href="#BitstreamVeraSans-Roman-20"/>
      <use x="1207.14648438" xlink:href="#BitstreamVeraSans-Roman-53"/>
      <use x="1270.62304688" xlink:href="#BitstreamVeraSans-Roman-74"/>
      <use x="1309.83203125" xlink:href="#BitstreamVeraSans-Roman-61"/>
      <use x="1371.11132812" xlink:href="#BitstreamVeraSans-Roman-6e"/>
      <use x="1434.49023438" xlink:href="#BitstreamVeraSans-Roman-20"/>
      <use x="1466.27734375" xlink:href="#BitstreamVeraSans-Roman-57"/>
      <use x="1565.06054688" xlink:href="#BitstreamVeraSans-Roman-61"/>
      <use x="1626.33984375" xlink:href="#BitstreamVeraSans-Roman-67"/>
      <use x="1689.81640625" xlink:href="#BitstreamVeraSans-Roman-6f"/>
      <use x="1750.99804688" xlink:href="#BitstreamVeraSans-Roman-6e"/>
      <use x="1814.37695312" xlink:href="#BitstreamVeraSans-Roman-27"/>
      <use x="1841.8671875" xlink:href="#BitstreamVeraSans-Roman-73"/>
      <use x="1893.96679688" xlink:href="#BitstreamVeraSans-Roman-20"/>
      <use x="1925.75390625" xlink:href="#BitstreamVeraSans-Roman-73"/>
      <use x="1977.85351562" xlink:href="#BitstreamVeraSans-Roman-70"/>
      <use x="2041.33007812" xlink:href="#BitstreamVeraSans-Roman-69"/>
      <use x="2069.11328125" xlink:href="#BitstreamVeraSans-Roman-67"/>
      <use x="2132.58984375" xlink:href="#BitstreamVeraSans-Roman-6f"/>
      <use x="2193.77148438" xlink:href="#BitstreamVeraSans-Roman-74"/>
      <use x="2232.98046875" xlink:href="#BitstreamVeraSans-Roman-20"/>
      <use x="2264.76757812" xlink:href="#BitstreamVeraSans-Roman-61"/>
      <use x="2326.046875" xlink:href="#BitstreamVeraSans-Roman-6c"/>
      <use x="2353.83007812" xlink:href="#BitstreamVeraSans-Roman-67"/>
      <use x="2417.30664062" xlink:href="#BitstreamVeraSans-Roman-6f"/>
      <use x="2478.48828125" xlink:href="#BitstreamVeraSans-Roman-72"/>
      <use x="2519.6015625" xlink:href="#BitstreamVeraSans-Roman-69"/>
      <use x="2547.38476562" xlink:href="#BitstreamVeraSans-Roman-74"/>
      <use x="2586.59375" xlink:href="#BitstreamVeraSans-Roman-68"/>
      <use x="2649.97265625" xlink:href="#BitstreamVeraSans-Roman-6d"/>
     </g>
    </g>
    <g id="line2d_59">
     <path d="M 351.475043 73.400625 
L 344.875043 73.400625 
" style="fill:none;stroke:#000000;stroke-linecap:square;"/>
    </g>
    <g id="line2d_60"/>
    <g id="text_13">
     <!-- Chudnovsky algorithm -->
     <defs>
      <path d="M 64.40625 67.28125 
L 64.40625 56.890625 
Q 59.421875 61.53125 53.78125 63.8125 
Q 48.140625 66.109375 41.796875 66.109375 
Q 29.296875 66.109375 22.65625 58.46875 
Q 16.015625 50.828125 16.015625 36.375 
Q 16.015625 21.96875 22.65625 14.328125 
Q 29.296875 6.6875 41.796875 6.6875 
Q 48.140625 6.6875 53.78125 8.984375 
Q 59.421875 11.28125 64.40625 15.921875 
L 64.40625 5.609375 
Q 59.234375 2.09375 53.4375 0.328125 
Q 47.65625 -1.421875 41.21875 -1.421875 
Q 24.65625 -1.421875 15.125 8.703125 
Q 5.609375 18.84375 5.609375 36.375 
Q 5.609375 53.953125 15.125 64.078125 
Q 24.65625 74.21875 41.21875 74.21875 
Q 47.75 74.21875 53.53125 72.484375 
Q 59.328125 70.75 64.40625 67.28125 
" id="BitstreamVeraSans-Roman-43"/>
      <path d="M 9.078125 75.984375 
L 18.109375 75.984375 
L 18.109375 31.109375 
L 44.921875 54.6875 
L 56.390625 54.6875 
L 27.390625 29.109375 
L 57.625 0 
L 45.90625 0 
L 18.109375 26.703125 
L 18.109375 0 
L 9.078125 0 
z
" id="BitstreamVeraSans-Roman-6b"/>
     </defs>
     <g transform="translate(354.47504253 77.600625)scale(0.12 -0.12)">
      <use xlink:href="#BitstreamVeraSans-Roman-43"/>
      <use x="69.82421875" xlink:href="#BitstreamVeraSans-Roman-68"/>
      <use x="133.203125" xlink:href="#BitstreamVeraSans-Roman-75"/>
      <use x="196.58203125" xlink:href="#BitstreamVeraSans-Roman-64"/>
      <use x="260.05859375" xlink:href="#BitstreamVeraSans-Roman-6e"/>
      <use x="323.4375" xlink:href="#BitstreamVeraSans-Roman-6f"/>
      <use x="384.619140625" xlink:href="#BitstreamVeraSans-Roman-76"/>
      <use x="443.798828125" xlink:href="#BitstreamVeraSans-Roman-73"/>
      <use x="495.8984375" xlink:href="#BitstreamVeraSans-Roman-6b"/>
      <use x="553.76171875" xlink:href="#BitstreamVeraSans-Roman-79"/>
      <use x="612.94140625" xlink:href="#BitstreamVeraSans-Roman-20"/>
      <use x="644.728515625" xlink:href="#BitstreamVeraSans-Roman-61"/>
      <use x="706.0078125" xlink:href="#BitstreamVeraSans-Roman-6c"/>
      <use x="733.791015625" xlink:href="#BitstreamVeraSans-Roman-67"/>
      <use x="797.267578125" xlink:href="#BitstreamVeraSans-Roman-6f"/>
      <use x="858.44921875" xlink:href="#BitstreamVeraSans-Roman-72"/>
      <use x="899.5625" xlink:href="#BitstreamVeraSans-Roman-69"/>
      <use x="927.345703125" xlink:href="#BitstreamVeraSans-Roman-74"/>
      <use x="966.5546875" xlink:href="#BitstreamVeraSans-Roman-68"/>
      <use x="1029.93359375" xlink:href="#BitstreamVeraSans-Roman-6d"/>
     </g>
    </g>
    <g id="line2d_61">
     <path d="M 351.475043 85.254375 
L 344.875043 85.254375 
" style="fill:none;stroke:#ffff00;stroke-linecap:square;"/>
    </g>
    <g id="line2d_62"/>
    <g id="text_14">
     <!-- Reverse_Tan_John_Machin -->
     <defs>
      <path d="M 9.8125 72.90625 
L 24.515625 72.90625 
L 43.109375 23.296875 
L 61.8125 72.90625 
L 76.515625 72.90625 
L 76.515625 0 
L 66.890625 0 
L 66.890625 64.015625 
L 48.09375 14.015625 
L 38.1875 14.015625 
L 19.390625 64.015625 
L 19.390625 0 
L 9.8125 0 
z
" id="BitstreamVeraSans-Roman-4d"/>
      <path d="M 48.78125 52.59375 
L 48.78125 44.1875 
Q 44.96875 46.296875 41.140625 47.34375 
Q 37.3125 48.390625 33.40625 48.390625 
Q 24.65625 48.390625 19.8125 42.84375 
Q 14.984375 37.3125 14.984375 27.296875 
Q 14.984375 17.28125 19.8125 11.734375 
Q 24.65625 6.203125 33.40625 6.203125 
Q 37.3125 6.203125 41.140625 7.25 
Q 44.96875 8.296875 48.78125 10.40625 
L 48.78125 2.09375 
Q 45.015625 0.34375 40.984375 -0.53125 
Q 36.96875 -1.421875 32.421875 -1.421875 
Q 20.0625 -1.421875 12.78125 6.34375 
Q 5.515625 14.109375 5.515625 27.296875 
Q 5.515625 40.671875 12.859375 48.328125 
Q 20.21875 56 33.015625 56 
Q 37.15625 56 41.109375 55.140625 
Q 45.0625 54.296875 48.78125 52.59375 
" id="BitstreamVeraSans-Roman-63"/>
     </defs>
     <g transform="translate(354.47504253 89.454375)scale(0.12 -0.12)">
      <use xlink:href="#BitstreamVeraSans-Roman-52"/>
      <use x="69.419921875" xlink:href="#BitstreamVeraSans-Roman-65"/>
      <use x="130.943359375" xlink:href="#BitstreamVeraSans-Roman-76"/>
      <use x="190.123046875" xlink:href="#BitstreamVeraSans-Roman-65"/>
      <use x="251.646484375" xlink:href="#BitstreamVeraSans-Roman-72"/>
      <use x="292.759765625" xlink:href="#BitstreamVeraSans-Roman-73"/>
      <use x="344.859375" xlink:href="#BitstreamVeraSans-Roman-65"/>
      <use x="406.3828125" xlink:href="#BitstreamVeraSans-Roman-5f"/>
      <use x="456.3828125" xlink:href="#BitstreamVeraSans-Roman-54"/>
      <use x="517.216796875" xlink:href="#BitstreamVeraSans-Roman-61"/>
      <use x="578.49609375" xlink:href="#BitstreamVeraSans-Roman-6e"/>
      <use x="641.875" xlink:href="#BitstreamVeraSans-Roman-5f"/>
      <use x="691.875" xlink:href="#BitstreamVeraSans-Roman-4a"/>
      <use x="721.3671875" xlink:href="#BitstreamVeraSans-Roman-6f"/>
      <use x="782.548828125" xlink:href="#BitstreamVeraSans-Roman-68"/>
      <use x="845.927734375" xlink:href="#BitstreamVeraSans-Roman-6e"/>
      <use x="909.306640625" xlink:href="#BitstreamVeraSans-Roman-5f"/>
      <use x="959.306640625" xlink:href="#BitstreamVeraSans-Roman-4d"/>
      <use x="1045.5859375" xlink:href="#BitstreamVeraSans-Roman-61"/>
      <use x="1106.86523438" xlink:href="#BitstreamVeraSans-Roman-63"/>
      <use x="1161.84570312" xlink:href="#BitstreamVeraSans-Roman-68"/>
      <use x="1225.22460938" xlink:href="#BitstreamVeraSans-Roman-69"/>
      <use x="1253.0078125" xlink:href="#BitstreamVeraSans-Roman-6e"/>
     </g>
    </g>
    <g id="line2d_63">
     <path d="M 351.475043 97.441875 
L 344.875043 97.441875 
" style="fill:none;stroke:#1e90ff;stroke-linecap:square;"/>
    </g>
    <g id="line2d_64"/>
    <g id="text_15">
     <!-- Reverse_Tan_Euler -->
     <defs>
      <path d="M 9.8125 72.90625 
L 55.90625 72.90625 
L 55.90625 64.59375 
L 19.671875 64.59375 
L 19.671875 43.015625 
L 54.390625 43.015625 
L 54.390625 34.71875 
L 19.671875 34.71875 
L 19.671875 8.296875 
L 56.78125 8.296875 
L 56.78125 0 
L 9.8125 0 
z
" id="BitstreamVeraSans-Roman-45"/>
     </defs>
     <g transform="translate(354.47504253 101.641875)scale(0.12 -0.12)">
      <use xlink:href="#BitstreamVeraSans-Roman-52"/>
      <use x="69.419921875" xlink:href="#BitstreamVeraSans-Roman-65"/>
      <use x="130.943359375" xlink:href="#BitstreamVeraSans-Roman-76"/>
      <use x="190.123046875" xlink:href="#BitstreamVeraSans-Roman-65"/>
      <use x="251.646484375" xlink:href="#BitstreamVeraSans-Roman-72"/>
      <use x="292.759765625" xlink:href="#BitstreamVeraSans-Roman-73"/>
      <use x="344.859375" xlink:href="#BitstreamVeraSans-Roman-65"/>
      <use x="406.3828125" xlink:href="#BitstreamVeraSans-Roman-5f"/>
      <use x="456.3828125" xlink:href="#BitstreamVeraSans-Roman-54"/>
      <use x="517.216796875" xlink:href="#BitstreamVeraSans-Roman-61"/>
      <use x="578.49609375" xlink:href="#BitstreamVeraSans-Roman-6e"/>
      <use x="641.875" xlink:href="#BitstreamVeraSans-Roman-5f"/>
      <use x="691.875" xlink:href="#BitstreamVeraSans-Roman-45"/>
      <use x="755.05859375" xlink:href="#BitstreamVeraSans-Roman-75"/>
      <use x="818.4375" xlink:href="#BitstreamVeraSans-Roman-6c"/>
      <use x="846.220703125" xlink:href="#BitstreamVeraSans-Roman-65"/>
      <use x="907.744140625" xlink:href="#BitstreamVeraSans-Roman-72"/>
     </g>
    </g>
   </g>
  </g>
 </g>
 <defs>
  <clipPath id="p29b9823cd6">
   <rect height="508.938307723" width="670.422788462" x="26.935379068" y="7.2"/>
  </clipPath>
 </defs>
</svg>
