<?xml version="1.0" encoding="utf-8" standalone="no"?>
<!DOCTYPE svg PUBLIC "-//W3C//DTD SVG 1.1//EN"
  "http://www.w3.org/Graphics/SVG/1.1/DTD/svg11.dtd">
<!-- Created with matplotlib (http://matplotlib.org/) -->
<svg height="419pt" version="1.1" viewBox="0 0 562 419" width="562pt" xmlns="http://www.w3.org/2000/svg" xmlns:xlink="http://www.w3.org/1999/xlink">
 <defs>
  <style type="text/css">
*{stroke-linecap:butt;stroke-linejoin:round;stroke-miterlimit:100000;}
  </style>
 </defs>
 <g id="figure_1">
  <g id="patch_1">
   <path d="M 0 419.867622 
L 562.72024 419.867622 
L 562.72024 0 
L 0 0 
z
" style="fill:#ffffff;"/>
  </g>
  <g id="axes_1">
   <g id="patch_2">
    <path d="M 17.689456 406.211154 
L 507.20024 406.211154 
L 507.20024 30.685 
L 17.689456 30.685 
z
" style="fill:#ffffff;"/>
   </g>
   <g id="PathCollection_1">
    <path clip-path="url(#p1513bafb72)" d="M 27.103125 400.570636 
C 27.522448 400.570636 27.924653 400.404037 28.221159 400.107531 
C 28.517665 399.811025 28.684264 399.40882 28.684264 398.989497 
C 28.684264 398.570174 28.517665 398.167969 28.221159 397.871463 
C 27.924653 397.574957 27.522448 397.408358 27.103125 397.408358 
C 26.683802 397.408358 26.281597 397.574957 25.985091 397.871463 
C 25.688585 398.167969 25.521986 398.570174 25.521986 398.989497 
C 25.521986 399.40882 25.688585 399.811025 25.985091 400.107531 
C 26.281597 400.404037 26.683802 400.570636 27.103125 400.570636 
z
" style="fill:#0000ff;"/>
   </g>
   <g id="PathCollection_2">
    <defs>
     <path d="M 0 1.581139 
C 0.419323 1.581139 0.821528 1.41454 1.118034 1.118034 
C 1.41454 0.821528 1.581139 0.419323 1.581139 0 
C 1.581139 -0.419323 1.41454 -0.821528 1.118034 -1.118034 
C 0.821528 -1.41454 0.419323 -1.581139 0 -1.581139 
C -0.419323 -1.581139 -0.821528 -1.41454 -1.118034 -1.118034 
C -1.41454 -0.821528 -1.581139 -0.419323 -1.581139 0 
C -1.581139 0.419323 -1.41454 0.821528 -1.118034 1.118034 
C -0.821528 1.41454 -0.419323 1.581139 0 1.581139 
z
" id="C0_0_d6734063b8"/>
    </defs>
    <g clip-path="url(#p1513bafb72)">
     <use style="fill:#ff0000;" x="79.4012856734" xlink:href="#C0_0_d6734063b8" y="396.67866111"/>
    </g>
    <g clip-path="url(#p1513bafb72)">
     <use style="fill:#ff0000;" x="131.699446347" xlink:href="#C0_0_d6734063b8" y="392.954140578"/>
    </g>
    <g clip-path="url(#p1513bafb72)">
     <use style="fill:#ff0000;" x="183.99760702" xlink:href="#C0_0_d6734063b8" y="386.2095829"/>
    </g>
    <g clip-path="url(#p1513bafb72)">
     <use style="fill:#ff0000;" x="236.295767693" xlink:href="#C0_0_d6734063b8" y="372.891974625"/>
    </g>
    <g clip-path="url(#p1513bafb72)">
     <use style="fill:#ff0000;" x="288.593928367" xlink:href="#C0_0_d6734063b8" y="358.747080565"/>
    </g>
    <g clip-path="url(#p1513bafb72)">
     <use style="fill:#ff0000;" x="340.89208904" xlink:href="#C0_0_d6734063b8" y="332.007932944"/>
    </g>
    <g clip-path="url(#p1513bafb72)">
     <use style="fill:#ff0000;" x="393.190249714" xlink:href="#C0_0_d6734063b8" y="298.766640973"/>
    </g>
    <g clip-path="url(#p1513bafb72)">
     <use style="fill:#ff0000;" x="445.488410387" xlink:href="#C0_0_d6734063b8" y="259.006345339"/>
    </g>
    <g clip-path="url(#p1513bafb72)">
     <use style="fill:#ff0000;" x="497.78657106" xlink:href="#C0_0_d6734063b8" y="206.563475547"/>
    </g>
   </g>
   <g id="PathCollection_3">
    <defs>
     <path d="M 0 1.581139 
C 0.419323 1.581139 0.821528 1.41454 1.118034 1.118034 
C 1.41454 0.821528 1.581139 0.419323 1.581139 0 
C 1.581139 -0.419323 1.41454 -0.821528 1.118034 -1.118034 
C 0.821528 -1.41454 0.419323 -1.581139 0 -1.581139 
C -0.419323 -1.581139 -0.821528 -1.41454 -1.118034 -1.118034 
C -1.41454 -0.821528 -1.581139 -0.419323 -1.581139 0 
C -1.581139 0.419323 -1.41454 0.821528 -1.118034 1.118034 
C -0.821528 1.41454 -0.419323 1.581139 0 1.581139 
z
" id="C1_0_f962f78028"/>
    </defs>
    <g clip-path="url(#p1513bafb72)">
     <use style="fill:#0000ff;" x="79.4012856734" xlink:href="#C1_0_f962f78028" y="398.835820589"/>
    </g>
    <g clip-path="url(#p1513bafb72)">
     <use style="fill:#0000ff;" x="131.699446347" xlink:href="#C1_0_f962f78028" y="398.840469042"/>
    </g>
    <g clip-path="url(#p1513bafb72)">
     <use style="fill:#0000ff;" x="183.99760702" xlink:href="#C1_0_f962f78028" y="398.709271674"/>
    </g>
    <g clip-path="url(#p1513bafb72)">
     <use style="fill:#0000ff;" x="236.295767693" xlink:href="#C1_0_f962f78028" y="398.788989165"/>
    </g>
    <g clip-path="url(#p1513bafb72)">
     <use style="fill:#0000ff;" x="288.593928367" xlink:href="#C1_0_f962f78028" y="398.735427891"/>
    </g>
    <g clip-path="url(#p1513bafb72)">
     <use style="fill:#0000ff;" x="340.89208904" xlink:href="#C1_0_f962f78028" y="398.674581729"/>
    </g>
    <g clip-path="url(#p1513bafb72)">
     <use style="fill:#0000ff;" x="393.190249714" xlink:href="#C1_0_f962f78028" y="398.45721454"/>
    </g>
    <g clip-path="url(#p1513bafb72)">
     <use style="fill:#0000ff;" x="445.488410387" xlink:href="#C1_0_f962f78028" y="398.526178149"/>
    </g>
    <g clip-path="url(#p1513bafb72)">
     <use style="fill:#0000ff;" x="497.78657106" xlink:href="#C1_0_f962f78028" y="398.584457255"/>
    </g>
   </g>
   <g id="PathCollection_4">
    <defs>
     <path d="M 0 1.581139 
C 0.419323 1.581139 0.821528 1.41454 1.118034 1.118034 
C 1.41454 0.821528 1.581139 0.419323 1.581139 0 
C 1.581139 -0.419323 1.41454 -0.821528 1.118034 -1.118034 
C 0.821528 -1.41454 0.419323 -1.581139 0 -1.581139 
C -0.419323 -1.581139 -0.821528 -1.41454 -1.118034 -1.118034 
C -1.41454 -0.821528 -1.581139 -0.419323 -1.581139 0 
C -1.581139 0.419323 -1.41454 0.821528 -1.118034 1.118034 
C -0.821528 1.41454 -0.419323 1.581139 0 1.581139 
z
" id="C2_0_2159eeda9f"/>
    </defs>
    <g clip-path="url(#p1513bafb72)">
     <use style="fill:#008000;" x="79.4012856734" xlink:href="#C2_0_2159eeda9f" y="398.596945635"/>
    </g>
    <g clip-path="url(#p1513bafb72)">
     <use style="fill:#008000;" x="131.699446347" xlink:href="#C2_0_2159eeda9f" y="397.982656106"/>
    </g>
    <g clip-path="url(#p1513bafb72)">
     <use style="fill:#008000;" x="183.99760702" xlink:href="#C2_0_2159eeda9f" y="396.961176014"/>
    </g>
    <g clip-path="url(#p1513bafb72)">
     <use style="fill:#008000;" x="236.295767693" xlink:href="#C2_0_2159eeda9f" y="395.049343818"/>
    </g>
    <g clip-path="url(#p1513bafb72)">
     <use style="fill:#008000;" x="288.593928367" xlink:href="#C2_0_2159eeda9f" y="393.900829151"/>
    </g>
    <g clip-path="url(#p1513bafb72)">
     <use style="fill:#008000;" x="340.89208904" xlink:href="#C2_0_2159eeda9f" y="391.251211226"/>
    </g>
    <g clip-path="url(#p1513bafb72)">
     <use style="fill:#008000;" x="393.190249714" xlink:href="#C2_0_2159eeda9f" y="388.91158264"/>
    </g>
    <g clip-path="url(#p1513bafb72)">
     <use style="fill:#008000;" x="445.488410387" xlink:href="#C2_0_2159eeda9f" y="385.540622019"/>
    </g>
    <g clip-path="url(#p1513bafb72)">
     <use style="fill:#008000;" x="497.78657106" xlink:href="#C2_0_2159eeda9f" y="383.125577495"/>
    </g>
   </g>
   <g id="PathCollection_5">
    <defs>
     <path d="M 0 1.581139 
C 0.419323 1.581139 0.821528 1.41454 1.118034 1.118034 
C 1.41454 0.821528 1.581139 0.419323 1.581139 0 
C 1.581139 -0.419323 1.41454 -0.821528 1.118034 -1.118034 
C 0.821528 -1.41454 0.419323 -1.581139 0 -1.581139 
C -0.419323 -1.581139 -0.821528 -1.41454 -1.118034 -1.118034 
C -1.41454 -0.821528 -1.581139 -0.419323 -1.581139 0 
C -1.581139 0.419323 -1.41454 0.821528 -1.118034 1.118034 
C -0.821528 1.41454 -0.419323 1.581139 0 1.581139 
z
" id="C3_0_56f3982ec6"/>
    </defs>
    <g clip-path="url(#p1513bafb72)">
     <use style="fill:#ffa500;" x="79.4012856734" xlink:href="#C3_0_56f3982ec6" y="394.163223888"/>
    </g>
    <g clip-path="url(#p1513bafb72)">
     <use style="fill:#ffa500;" x="131.699446347" xlink:href="#C3_0_56f3982ec6" y="380.560186754"/>
    </g>
    <g clip-path="url(#p1513bafb72)">
     <use style="fill:#ffa500;" x="183.99760702" xlink:href="#C3_0_56f3982ec6" y="358.447636969"/>
    </g>
    <g clip-path="url(#p1513bafb72)">
     <use style="fill:#ffa500;" x="236.295767693" xlink:href="#C3_0_56f3982ec6" y="327.241604014"/>
    </g>
    <g clip-path="url(#p1513bafb72)">
     <use style="fill:#ffa500;" x="288.593928367" xlink:href="#C3_0_56f3982ec6" y="286.977332873"/>
    </g>
    <g clip-path="url(#p1513bafb72)">
     <use style="fill:#ffa500;" x="340.89208904" xlink:href="#C3_0_56f3982ec6" y="238.745475387"/>
    </g>
    <g clip-path="url(#p1513bafb72)">
     <use style="fill:#ffa500;" x="393.190249714" xlink:href="#C3_0_56f3982ec6" y="179.903212858"/>
    </g>
    <g clip-path="url(#p1513bafb72)">
     <use style="fill:#ffa500;" x="445.488410387" xlink:href="#C3_0_56f3982ec6" y="112.994081364"/>
    </g>
    <g clip-path="url(#p1513bafb72)">
     <use style="fill:#ffa500;" x="497.78657106" xlink:href="#C3_0_56f3982ec6" y="37.9066568047"/>
    </g>
   </g>
   <g id="patch_3">
    <path d="M 17.689456 398.989497 
L 507.20024 398.989497 
" style="fill:none;stroke:#000000;stroke-linecap:square;stroke-linejoin:miter;stroke-width:0.8;"/>
   </g>
   <g id="patch_4">
    <path d="M 27.103125 406.211154 
L 27.103125 30.685 
" style="fill:none;stroke:#000000;stroke-linecap:square;stroke-linejoin:miter;stroke-width:0.8;"/>
   </g>
   <g id="matplotlib.axis_1">
    <g id="xtick_1">
     <g id="line2d_1">
      <defs>
       <path d="M 0 0 
L 0 -4 
" id="maf35ddfbae" style="stroke:#000000;stroke-width:0.5;"/>
      </defs>
      <g>
       <use style="stroke:#000000;stroke-width:0.5;" x="27.103125" xlink:href="#maf35ddfbae" y="398.989497041"/>
      </g>
     </g>
    </g>
    <g id="xtick_2">
     <g id="line2d_2">
      <g>
       <use style="stroke:#000000;stroke-width:0.5;" x="131.699446347" xlink:href="#maf35ddfbae" y="398.989497041"/>
      </g>
     </g>
     <g id="text_1">
      <!-- 200 -->
      <defs>
       <path d="M 19.1875 8.296875 
L 53.609375 8.296875 
L 53.609375 0 
L 7.328125 0 
L 7.328125 8.296875 
Q 12.9375 14.109375 22.625 23.890625 
Q 32.328125 33.6875 34.8125 36.53125 
Q 39.546875 41.84375 41.421875 45.53125 
Q 43.3125 49.21875 43.3125 52.78125 
Q 43.3125 58.59375 39.234375 62.25 
Q 35.15625 65.921875 28.609375 65.921875 
Q 23.96875 65.921875 18.8125 64.3125 
Q 13.671875 62.703125 7.8125 59.421875 
L 7.8125 69.390625 
Q 13.765625 71.78125 18.9375 73 
Q 24.125 74.21875 28.421875 74.21875 
Q 39.75 74.21875 46.484375 68.546875 
Q 53.21875 62.890625 53.21875 53.421875 
Q 53.21875 48.921875 51.53125 44.890625 
Q 49.859375 40.875 45.40625 35.40625 
Q 44.1875 33.984375 37.640625 27.21875 
Q 31.109375 20.453125 19.1875 8.296875 
" id="BitstreamVeraSans-Roman-32"/>
       <path d="M 31.78125 66.40625 
Q 24.171875 66.40625 20.328125 58.90625 
Q 16.5 51.421875 16.5 36.375 
Q 16.5 21.390625 20.328125 13.890625 
Q 24.171875 6.390625 31.78125 6.390625 
Q 39.453125 6.390625 43.28125 13.890625 
Q 47.125 21.390625 47.125 36.375 
Q 47.125 51.421875 43.28125 58.90625 
Q 39.453125 66.40625 31.78125 66.40625 
M 31.78125 74.21875 
Q 44.046875 74.21875 50.515625 64.515625 
Q 56.984375 54.828125 56.984375 36.375 
Q 56.984375 17.96875 50.515625 8.265625 
Q 44.046875 -1.421875 31.78125 -1.421875 
Q 19.53125 -1.421875 13.0625 8.265625 
Q 6.59375 17.96875 6.59375 36.375 
Q 6.59375 54.828125 13.0625 64.515625 
Q 19.53125 74.21875 31.78125 74.21875 
" id="BitstreamVeraSans-Roman-30"/>
      </defs>
      <g transform="translate(122.155696347 410.587934541)scale(0.1 -0.1)">
       <use xlink:href="#BitstreamVeraSans-Roman-32"/>
       <use x="63.623046875" xlink:href="#BitstreamVeraSans-Roman-30"/>
       <use x="127.24609375" xlink:href="#BitstreamVeraSans-Roman-30"/>
      </g>
     </g>
    </g>
    <g id="xtick_3">
     <g id="line2d_3">
      <g>
       <use style="stroke:#000000;stroke-width:0.5;" x="236.295767693" xlink:href="#maf35ddfbae" y="398.989497041"/>
      </g>
     </g>
     <g id="text_2">
      <!-- 400 -->
      <defs>
       <path d="M 37.796875 64.3125 
L 12.890625 25.390625 
L 37.796875 25.390625 
z
M 35.203125 72.90625 
L 47.609375 72.90625 
L 47.609375 25.390625 
L 58.015625 25.390625 
L 58.015625 17.1875 
L 47.609375 17.1875 
L 47.609375 0 
L 37.796875 0 
L 37.796875 17.1875 
L 4.890625 17.1875 
L 4.890625 26.703125 
z
" id="BitstreamVeraSans-Roman-34"/>
      </defs>
      <g transform="translate(226.752017693 410.587934541)scale(0.1 -0.1)">
       <use xlink:href="#BitstreamVeraSans-Roman-34"/>
       <use x="63.623046875" xlink:href="#BitstreamVeraSans-Roman-30"/>
       <use x="127.24609375" xlink:href="#BitstreamVeraSans-Roman-30"/>
      </g>
     </g>
    </g>
    <g id="xtick_4">
     <g id="line2d_4">
      <g>
       <use style="stroke:#000000;stroke-width:0.5;" x="340.89208904" xlink:href="#maf35ddfbae" y="398.989497041"/>
      </g>
     </g>
     <g id="text_3">
      <!-- 600 -->
      <defs>
       <path d="M 33.015625 40.375 
Q 26.375 40.375 22.484375 35.828125 
Q 18.609375 31.296875 18.609375 23.390625 
Q 18.609375 15.53125 22.484375 10.953125 
Q 26.375 6.390625 33.015625 6.390625 
Q 39.65625 6.390625 43.53125 10.953125 
Q 47.40625 15.53125 47.40625 23.390625 
Q 47.40625 31.296875 43.53125 35.828125 
Q 39.65625 40.375 33.015625 40.375 
M 52.59375 71.296875 
L 52.59375 62.3125 
Q 48.875 64.0625 45.09375 64.984375 
Q 41.3125 65.921875 37.59375 65.921875 
Q 27.828125 65.921875 22.671875 59.328125 
Q 17.53125 52.734375 16.796875 39.40625 
Q 19.671875 43.65625 24.015625 45.921875 
Q 28.375 48.1875 33.59375 48.1875 
Q 44.578125 48.1875 50.953125 41.515625 
Q 57.328125 34.859375 57.328125 23.390625 
Q 57.328125 12.15625 50.6875 5.359375 
Q 44.046875 -1.421875 33.015625 -1.421875 
Q 20.359375 -1.421875 13.671875 8.265625 
Q 6.984375 17.96875 6.984375 36.375 
Q 6.984375 53.65625 15.1875 63.9375 
Q 23.390625 74.21875 37.203125 74.21875 
Q 40.921875 74.21875 44.703125 73.484375 
Q 48.484375 72.75 52.59375 71.296875 
" id="BitstreamVeraSans-Roman-36"/>
      </defs>
      <g transform="translate(331.34833904 410.587934541)scale(0.1 -0.1)">
       <use xlink:href="#BitstreamVeraSans-Roman-36"/>
       <use x="63.623046875" xlink:href="#BitstreamVeraSans-Roman-30"/>
       <use x="127.24609375" xlink:href="#BitstreamVeraSans-Roman-30"/>
      </g>
     </g>
    </g>
    <g id="xtick_5">
     <g id="line2d_5">
      <g>
       <use style="stroke:#000000;stroke-width:0.5;" x="445.488410387" xlink:href="#maf35ddfbae" y="398.989497041"/>
      </g>
     </g>
     <g id="text_4">
      <!-- 800 -->
      <defs>
       <path d="M 31.78125 34.625 
Q 24.75 34.625 20.71875 30.859375 
Q 16.703125 27.09375 16.703125 20.515625 
Q 16.703125 13.921875 20.71875 10.15625 
Q 24.75 6.390625 31.78125 6.390625 
Q 38.8125 6.390625 42.859375 10.171875 
Q 46.921875 13.96875 46.921875 20.515625 
Q 46.921875 27.09375 42.890625 30.859375 
Q 38.875 34.625 31.78125 34.625 
M 21.921875 38.8125 
Q 15.578125 40.375 12.03125 44.71875 
Q 8.5 49.078125 8.5 55.328125 
Q 8.5 64.0625 14.71875 69.140625 
Q 20.953125 74.21875 31.78125 74.21875 
Q 42.671875 74.21875 48.875 69.140625 
Q 55.078125 64.0625 55.078125 55.328125 
Q 55.078125 49.078125 51.53125 44.71875 
Q 48 40.375 41.703125 38.8125 
Q 48.828125 37.15625 52.796875 32.3125 
Q 56.78125 27.484375 56.78125 20.515625 
Q 56.78125 9.90625 50.3125 4.234375 
Q 43.84375 -1.421875 31.78125 -1.421875 
Q 19.734375 -1.421875 13.25 4.234375 
Q 6.78125 9.90625 6.78125 20.515625 
Q 6.78125 27.484375 10.78125 32.3125 
Q 14.796875 37.15625 21.921875 38.8125 
M 18.3125 54.390625 
Q 18.3125 48.734375 21.84375 45.5625 
Q 25.390625 42.390625 31.78125 42.390625 
Q 38.140625 42.390625 41.71875 45.5625 
Q 45.3125 48.734375 45.3125 54.390625 
Q 45.3125 60.0625 41.71875 63.234375 
Q 38.140625 66.40625 31.78125 66.40625 
Q 25.390625 66.40625 21.84375 63.234375 
Q 18.3125 60.0625 18.3125 54.390625 
" id="BitstreamVeraSans-Roman-38"/>
      </defs>
      <g transform="translate(435.944660387 410.587934541)scale(0.1 -0.1)">
       <use xlink:href="#BitstreamVeraSans-Roman-38"/>
       <use x="63.623046875" xlink:href="#BitstreamVeraSans-Roman-30"/>
       <use x="127.24609375" xlink:href="#BitstreamVeraSans-Roman-30"/>
      </g>
     </g>
    </g>
    <g id="xtick_6">
     <g id="line2d_6">
      <defs>
       <path d="M 0 0 
L 0 -2 
" id="m79fa8e6720" style="stroke:#000000;stroke-width:0.5;"/>
      </defs>
      <g>
       <use style="stroke:#000000;stroke-width:0.5;" x="53.2522053367" xlink:href="#m79fa8e6720" y="398.989497041"/>
      </g>
     </g>
    </g>
    <g id="xtick_7">
     <g id="line2d_7">
      <g>
       <use style="stroke:#000000;stroke-width:0.5;" x="79.4012856734" xlink:href="#m79fa8e6720" y="398.989497041"/>
      </g>
     </g>
    </g>
    <g id="xtick_8">
     <g id="line2d_8">
      <g>
       <use style="stroke:#000000;stroke-width:0.5;" x="105.55036601" xlink:href="#m79fa8e6720" y="398.989497041"/>
      </g>
     </g>
    </g>
    <g id="xtick_9">
     <g id="line2d_9">
      <g>
       <use style="stroke:#000000;stroke-width:0.5;" x="157.848526683" xlink:href="#m79fa8e6720" y="398.989497041"/>
      </g>
     </g>
    </g>
    <g id="xtick_10">
     <g id="line2d_10">
      <g>
       <use style="stroke:#000000;stroke-width:0.5;" x="183.99760702" xlink:href="#m79fa8e6720" y="398.989497041"/>
      </g>
     </g>
    </g>
    <g id="xtick_11">
     <g id="line2d_11">
      <g>
       <use style="stroke:#000000;stroke-width:0.5;" x="210.146687357" xlink:href="#m79fa8e6720" y="398.989497041"/>
      </g>
     </g>
    </g>
    <g id="xtick_12">
     <g id="line2d_12">
      <g>
       <use style="stroke:#000000;stroke-width:0.5;" x="262.44484803" xlink:href="#m79fa8e6720" y="398.989497041"/>
      </g>
     </g>
    </g>
    <g id="xtick_13">
     <g id="line2d_13">
      <g>
       <use style="stroke:#000000;stroke-width:0.5;" x="288.593928367" xlink:href="#m79fa8e6720" y="398.989497041"/>
      </g>
     </g>
    </g>
    <g id="xtick_14">
     <g id="line2d_14">
      <g>
       <use style="stroke:#000000;stroke-width:0.5;" x="314.743008703" xlink:href="#m79fa8e6720" y="398.989497041"/>
      </g>
     </g>
    </g>
    <g id="xtick_15">
     <g id="line2d_15">
      <g>
       <use style="stroke:#000000;stroke-width:0.5;" x="367.041169377" xlink:href="#m79fa8e6720" y="398.989497041"/>
      </g>
     </g>
    </g>
    <g id="xtick_16">
     <g id="line2d_16">
      <g>
       <use style="stroke:#000000;stroke-width:0.5;" x="393.190249714" xlink:href="#m79fa8e6720" y="398.989497041"/>
      </g>
     </g>
    </g>
    <g id="xtick_17">
     <g id="line2d_17">
      <g>
       <use style="stroke:#000000;stroke-width:0.5;" x="419.33933005" xlink:href="#m79fa8e6720" y="398.989497041"/>
      </g>
     </g>
    </g>
    <g id="xtick_18">
     <g id="line2d_18">
      <g>
       <use style="stroke:#000000;stroke-width:0.5;" x="471.637490724" xlink:href="#m79fa8e6720" y="398.989497041"/>
      </g>
     </g>
    </g>
    <g id="xtick_19">
     <g id="line2d_19">
      <g>
       <use style="stroke:#000000;stroke-width:0.5;" x="497.78657106" xlink:href="#m79fa8e6720" y="398.989497041"/>
      </g>
     </g>
    </g>
    <g id="text_5">
     <!-- $digits$ -->
     <defs>
      <path d="M 7.8125 7.171875 
Q 7.8125 9.03125 8.59375 11.078125 
L 16.703125 32.625 
Q 18.015625 36.28125 18.015625 38.625 
Q 18.015625 41.609375 15.828125 41.609375 
Q 11.859375 41.609375 9.296875 37.53125 
Q 6.734375 33.453125 5.515625 28.421875 
Q 5.328125 27.78125 4.6875 27.78125 
L 3.515625 27.78125 
Q 2.6875 27.78125 2.6875 28.71875 
L 2.6875 29 
Q 4.296875 34.96875 7.609375 39.578125 
Q 10.9375 44.1875 16.015625 44.1875 
Q 19.578125 44.1875 22.046875 41.84375 
Q 24.515625 39.5 24.515625 35.890625 
Q 24.515625 34.03125 23.6875 31.984375 
L 15.578125 10.5 
Q 14.203125 7.171875 14.203125 4.5 
Q 14.203125 1.515625 16.5 1.515625 
Q 20.40625 1.515625 23.015625 5.6875 
Q 25.640625 9.859375 26.703125 14.703125 
Q 26.90625 15.28125 27.484375 15.28125 
L 28.71875 15.28125 
Q 29.109375 15.28125 29.34375 15.015625 
Q 29.59375 14.75 29.59375 14.40625 
Q 29.59375 14.3125 29.5 14.109375 
Q 28.125 8.453125 24.734375 3.65625 
Q 21.34375 -1.125 16.3125 -1.125 
Q 12.796875 -1.125 10.296875 1.296875 
Q 7.8125 3.71875 7.8125 7.171875 
M 19.09375 60.59375 
Q 19.09375 62.703125 20.84375 64.40625 
Q 22.609375 66.109375 24.703125 66.109375 
Q 26.421875 66.109375 27.515625 65.0625 
Q 28.609375 64.015625 28.609375 62.40625 
Q 28.609375 60.15625 26.828125 58.46875 
Q 25.046875 56.78125 22.90625 56.78125 
Q 21.296875 56.78125 20.1875 57.875 
Q 19.09375 58.984375 19.09375 60.59375 
" id="Cmmi10-69"/>
      <path d="M 6.203125 8.109375 
Q 6.203125 9.578125 6.5 10.890625 
L 13.71875 39.59375 
L 3.21875 39.59375 
Q 2.203125 39.59375 2.203125 40.921875 
Q 2.59375 43.109375 3.515625 43.109375 
L 14.59375 43.109375 
L 18.609375 59.421875 
Q 19 60.75 20.171875 61.671875 
Q 21.34375 62.59375 22.796875 62.59375 
Q 24.078125 62.59375 24.921875 61.828125 
Q 25.78125 61.078125 25.78125 59.8125 
Q 25.78125 59.515625 25.75 59.34375 
Q 25.734375 59.1875 25.6875 58.984375 
L 21.6875 43.109375 
L 31.984375 43.109375 
Q 33.015625 43.109375 33.015625 41.796875 
Q 32.953125 41.546875 32.8125 40.953125 
Q 32.671875 40.375 32.421875 39.984375 
Q 32.171875 39.59375 31.6875 39.59375 
L 20.796875 39.59375 
L 13.625 10.6875 
Q 12.890625 7.859375 12.890625 5.8125 
Q 12.890625 1.515625 15.828125 1.515625 
Q 20.21875 1.515625 23.609375 5.640625 
Q 27 9.765625 28.8125 14.703125 
Q 29.203125 15.28125 29.59375 15.28125 
L 30.8125 15.28125 
Q 31.203125 15.28125 31.4375 15.015625 
Q 31.6875 14.75 31.6875 14.40625 
Q 31.6875 14.203125 31.59375 14.109375 
Q 29.390625 8.0625 25.1875 3.46875 
Q 21 -1.125 15.578125 -1.125 
Q 11.625 -1.125 8.90625 1.453125 
Q 6.203125 4.046875 6.203125 8.109375 
" id="Cmmi10-74"/>
      <path d="M 17.390625 -1.125 
Q 11.078125 -1.125 7.4375 3.640625 
Q 3.8125 8.40625 3.8125 14.890625 
Q 3.8125 21.296875 7.125 28.171875 
Q 10.453125 35.0625 16.09375 39.625 
Q 21.734375 44.1875 28.21875 44.1875 
Q 31.15625 44.1875 33.515625 42.546875 
Q 35.890625 40.921875 37.203125 38.1875 
L 42.828125 60.5 
Q 43.21875 62.203125 43.3125 63.1875 
Q 43.3125 64.796875 36.8125 64.796875 
Q 35.796875 64.796875 35.796875 66.109375 
Q 35.84375 66.359375 36.015625 66.984375 
Q 36.1875 67.625 36.453125 67.96875 
Q 36.71875 68.3125 37.203125 68.3125 
L 50.6875 69.390625 
Q 51.90625 69.390625 51.90625 68.109375 
L 37.5 10.59375 
Q 36.8125 8.9375 36.8125 5.8125 
Q 36.8125 1.515625 39.703125 1.515625 
Q 42.828125 1.515625 44.453125 5.484375 
Q 46.09375 9.46875 47.21875 14.703125 
Q 47.40625 15.28125 48 15.28125 
L 49.21875 15.28125 
Q 49.609375 15.28125 49.84375 14.9375 
Q 50.09375 14.59375 50.09375 14.3125 
Q 48.34375 7.328125 46.265625 3.09375 
Q 44.1875 -1.125 39.5 -1.125 
Q 36.140625 -1.125 33.546875 0.84375 
Q 30.953125 2.828125 30.328125 6.109375 
Q 23.875 -1.125 17.390625 -1.125 
M 17.484375 1.515625 
Q 21.09375 1.515625 24.484375 4.21875 
Q 27.875 6.9375 30.328125 10.59375 
Q 30.421875 10.6875 30.421875 10.984375 
L 35.890625 33.015625 
Q 35.296875 36.53125 33.296875 39.0625 
Q 31.296875 41.609375 27.984375 41.609375 
Q 24.609375 41.609375 21.703125 38.84375 
Q 18.796875 36.078125 16.796875 32.328125 
Q 14.84375 28.328125 13.0625 21.34375 
Q 11.28125 14.359375 11.28125 10.5 
Q 11.28125 7.03125 12.765625 4.265625 
Q 14.265625 1.515625 17.484375 1.515625 
" id="Cmmi10-64"/>
      <path d="M 1.421875 -14.3125 
Q 1.421875 -11.859375 3.09375 -10.03125 
Q 4.78125 -8.203125 7.171875 -8.203125 
Q 8.796875 -8.203125 9.890625 -9.203125 
Q 10.984375 -10.203125 10.984375 -11.8125 
Q 10.984375 -13.625 9.953125 -15.0625 
Q 8.9375 -16.5 7.328125 -17.09375 
Q 10.015625 -17.921875 15.71875 -17.921875 
Q 20.3125 -17.921875 24.125 -14.375 
Q 27.9375 -10.84375 29.109375 -6.203125 
L 31.984375 5.515625 
Q 26.5625 0 20.703125 0 
Q 16.40625 0 13.34375 2.1875 
Q 10.296875 4.390625 8.6875 8.046875 
Q 7.078125 11.71875 7.078125 15.828125 
Q 7.078125 20.40625 8.953125 25.4375 
Q 10.84375 30.46875 14.234375 34.765625 
Q 17.625 39.0625 22.015625 41.625 
Q 26.421875 44.1875 31.296875 44.1875 
Q 34.234375 44.1875 36.578125 42.578125 
Q 38.921875 40.96875 40.28125 38.28125 
Q 41.265625 42.1875 44.578125 42.1875 
Q 45.84375 42.1875 46.71875 41.421875 
Q 47.609375 40.671875 47.609375 39.40625 
Q 47.609375 39.109375 47.578125 38.953125 
Q 47.5625 38.8125 47.515625 38.625 
L 36.078125 -6.78125 
Q 35.296875 -9.90625 33.203125 -12.5 
Q 31.109375 -15.09375 28.265625 -16.828125 
Q 25.4375 -18.5625 22.0625 -19.53125 
Q 18.703125 -20.515625 15.578125 -20.515625 
Q 9.859375 -20.515625 5.640625 -19.40625 
Q 1.421875 -18.3125 1.421875 -14.3125 
M 20.90625 2.59375 
Q 27.296875 2.59375 33.5 11.375 
L 39.015625 33.203125 
Q 38.328125 36.671875 36.28125 39.140625 
Q 34.234375 41.609375 31.109375 41.609375 
Q 27.78125 41.609375 24.828125 38.890625 
Q 21.875 36.1875 19.921875 32.421875 
Q 18.0625 28.8125 16.328125 22.046875 
Q 14.59375 15.28125 14.59375 11.375 
Q 14.59375 7.953125 16.15625 5.265625 
Q 17.71875 2.59375 20.90625 2.59375 
" id="Cmmi10-67"/>
      <path d="M 8.6875 6.109375 
Q 11.375 1.515625 19.484375 1.515625 
Q 23 1.515625 26.171875 2.703125 
Q 29.34375 3.90625 31.421875 6.296875 
Q 33.5 8.6875 33.5 12.109375 
Q 33.5 14.703125 31.640625 16.359375 
Q 29.78125 18.015625 27.09375 18.609375 
L 21.6875 19.671875 
Q 17.96875 20.609375 15.578125 23.140625 
Q 13.1875 25.6875 13.1875 29.296875 
Q 13.1875 33.734375 15.59375 37.15625 
Q 18.015625 40.578125 21.96875 42.375 
Q 25.921875 44.1875 30.171875 44.1875 
Q 34.71875 44.1875 38.296875 42.015625 
Q 41.890625 39.84375 41.890625 35.59375 
Q 41.890625 33.296875 40.59375 31.53125 
Q 39.3125 29.78125 37.015625 29.78125 
Q 35.6875 29.78125 34.734375 30.640625 
Q 33.796875 31.5 33.796875 32.8125 
Q 33.796875 33.984375 34.453125 35.078125 
Q 35.109375 36.1875 36.203125 36.84375 
Q 37.3125 37.5 38.484375 37.5 
Q 37.59375 39.65625 35.171875 40.625 
Q 32.765625 41.609375 29.984375 41.609375 
Q 27.4375 41.609375 24.890625 40.578125 
Q 22.359375 39.546875 20.8125 37.5625 
Q 19.28125 35.59375 19.28125 32.90625 
Q 19.28125 31.109375 20.546875 29.734375 
Q 21.828125 28.375 23.6875 27.78125 
L 29.5 26.609375 
Q 32.28125 26.03125 34.59375 24.53125 
Q 36.921875 23.046875 38.25 20.765625 
Q 39.59375 18.5 39.59375 15.578125 
Q 39.59375 11.859375 37.515625 8.25 
Q 35.453125 4.640625 32.421875 2.484375 
Q 27.09375 -1.125 19.390625 -1.125 
Q 14.0625 -1.125 9.609375 1.3125 
Q 5.171875 3.765625 5.171875 8.59375 
Q 5.171875 11.328125 6.75 13.34375 
Q 8.34375 15.375 11.078125 15.375 
Q 12.703125 15.375 13.796875 14.390625 
Q 14.890625 13.421875 14.890625 11.8125 
Q 14.890625 9.515625 13.171875 7.8125 
Q 11.46875 6.109375 9.1875 6.109375 
z
" id="Cmmi10-73"/>
     </defs>
     <g transform="translate(515.200239981 398.989497041)scale(0.16 -0.16)">
      <use transform="translate(0.0 0.609375)" xlink:href="#Cmmi10-64"/>
      <use transform="translate(52.001953125 0.609375)" xlink:href="#Cmmi10-69"/>
      <use transform="translate(86.42578125 0.609375)" xlink:href="#Cmmi10-67"/>
      <use transform="translate(134.130859375 0.609375)" xlink:href="#Cmmi10-69"/>
      <use transform="translate(168.5546875 0.609375)" xlink:href="#Cmmi10-74"/>
      <use transform="translate(204.638671875 0.609375)" xlink:href="#Cmmi10-73"/>
     </g>
    </g>
   </g>
   <g id="matplotlib.axis_2">
    <g id="ytick_1">
     <g id="line2d_20">
      <defs>
       <path d="M 0 0 
L 4 0 
" id="m2c2a597792" style="stroke:#000000;stroke-width:0.5;"/>
      </defs>
      <g>
       <use style="stroke:#000000;stroke-width:0.5;" x="27.103125" xlink:href="#m2c2a597792" y="398.989497041"/>
      </g>
     </g>
    </g>
    <g id="ytick_2">
     <g id="line2d_21">
      <g>
       <use style="stroke:#000000;stroke-width:0.5;" x="27.103125" xlink:href="#m2c2a597792" y="340.789428633"/>
      </g>
     </g>
     <g id="text_6">
      <!-- 0.2 -->
      <defs>
       <path d="M 10.6875 12.40625 
L 21 12.40625 
L 21 0 
L 10.6875 0 
z
" id="BitstreamVeraSans-Roman-2e"/>
      </defs>
      <g transform="translate(7.2 343.548803633)scale(0.1 -0.1)">
       <use xlink:href="#BitstreamVeraSans-Roman-30"/>
       <use x="63.623046875" xlink:href="#BitstreamVeraSans-Roman-2e"/>
       <use x="95.41015625" xlink:href="#BitstreamVeraSans-Roman-32"/>
      </g>
     </g>
    </g>
    <g id="ytick_3">
     <g id="line2d_22">
      <g>
       <use style="stroke:#000000;stroke-width:0.5;" x="27.103125" xlink:href="#m2c2a597792" y="282.589360224"/>
      </g>
     </g>
     <g id="text_7">
      <!-- 0.4 -->
      <g transform="translate(7.2 285.348735224)scale(0.1 -0.1)">
       <use xlink:href="#BitstreamVeraSans-Roman-30"/>
       <use x="63.623046875" xlink:href="#BitstreamVeraSans-Roman-2e"/>
       <use x="95.41015625" xlink:href="#BitstreamVeraSans-Roman-34"/>
      </g>
     </g>
    </g>
    <g id="ytick_4">
     <g id="line2d_23">
      <g>
       <use style="stroke:#000000;stroke-width:0.5;" x="27.103125" xlink:href="#m2c2a597792" y="224.389291816"/>
      </g>
     </g>
     <g id="text_8">
      <!-- 0.6 -->
      <g transform="translate(7.2 227.148666816)scale(0.1 -0.1)">
       <use xlink:href="#BitstreamVeraSans-Roman-30"/>
       <use x="63.623046875" xlink:href="#BitstreamVeraSans-Roman-2e"/>
       <use x="95.41015625" xlink:href="#BitstreamVeraSans-Roman-36"/>
      </g>
     </g>
    </g>
    <g id="ytick_5">
     <g id="line2d_24">
      <g>
       <use style="stroke:#000000;stroke-width:0.5;" x="27.103125" xlink:href="#m2c2a597792" y="166.189223407"/>
      </g>
     </g>
     <g id="text_9">
      <!-- 0.8 -->
      <g transform="translate(7.2 168.948598407)scale(0.1 -0.1)">
       <use xlink:href="#BitstreamVeraSans-Roman-30"/>
       <use x="63.623046875" xlink:href="#BitstreamVeraSans-Roman-2e"/>
       <use x="95.41015625" xlink:href="#BitstreamVeraSans-Roman-38"/>
      </g>
     </g>
    </g>
    <g id="ytick_6">
     <g id="line2d_25">
      <g>
       <use style="stroke:#000000;stroke-width:0.5;" x="27.103125" xlink:href="#m2c2a597792" y="107.989154999"/>
      </g>
     </g>
     <g id="text_10">
      <!-- 1 -->
      <defs>
       <path d="M 12.40625 8.296875 
L 28.515625 8.296875 
L 28.515625 63.921875 
L 10.984375 60.40625 
L 10.984375 69.390625 
L 28.421875 72.90625 
L 38.28125 72.90625 
L 38.28125 8.296875 
L 54.390625 8.296875 
L 54.390625 0 
L 12.40625 0 
z
" id="BitstreamVeraSans-Roman-31"/>
      </defs>
      <g transform="translate(16.740625 110.748529999)scale(0.1 -0.1)">
       <use xlink:href="#BitstreamVeraSans-Roman-31"/>
      </g>
     </g>
    </g>
    <g id="ytick_7">
     <g id="line2d_26">
      <g>
       <use style="stroke:#000000;stroke-width:0.5;" x="27.103125" xlink:href="#m2c2a597792" y="49.7890865905"/>
      </g>
     </g>
     <g id="text_11">
      <!-- 1.2 -->
      <g transform="translate(7.2 52.5484615905)scale(0.1 -0.1)">
       <use xlink:href="#BitstreamVeraSans-Roman-31"/>
       <use x="63.623046875" xlink:href="#BitstreamVeraSans-Roman-2e"/>
       <use x="95.41015625" xlink:href="#BitstreamVeraSans-Roman-32"/>
      </g>
     </g>
    </g>
    <g id="ytick_8">
     <g id="line2d_27">
      <defs>
       <path d="M 0 0 
L 2 0 
" id="m31f45ac00c" style="stroke:#000000;stroke-width:0.5;"/>
      </defs>
      <g>
       <use style="stroke:#000000;stroke-width:0.5;" x="27.103125" xlink:href="#m31f45ac00c" y="384.439479939"/>
      </g>
     </g>
    </g>
    <g id="ytick_9">
     <g id="line2d_28">
      <g>
       <use style="stroke:#000000;stroke-width:0.5;" x="27.103125" xlink:href="#m31f45ac00c" y="369.889462837"/>
      </g>
     </g>
    </g>
    <g id="ytick_10">
     <g id="line2d_29">
      <g>
       <use style="stroke:#000000;stroke-width:0.5;" x="27.103125" xlink:href="#m31f45ac00c" y="355.339445735"/>
      </g>
     </g>
    </g>
    <g id="ytick_11">
     <g id="line2d_30">
      <g>
       <use style="stroke:#000000;stroke-width:0.5;" x="27.103125" xlink:href="#m31f45ac00c" y="340.789428633"/>
      </g>
     </g>
    </g>
    <g id="ytick_12">
     <g id="line2d_31">
      <g>
       <use style="stroke:#000000;stroke-width:0.5;" x="27.103125" xlink:href="#m31f45ac00c" y="326.239411531"/>
      </g>
     </g>
    </g>
    <g id="ytick_13">
     <g id="line2d_32">
      <g>
       <use style="stroke:#000000;stroke-width:0.5;" x="27.103125" xlink:href="#m31f45ac00c" y="311.689394429"/>
      </g>
     </g>
    </g>
    <g id="ytick_14">
     <g id="line2d_33">
      <g>
       <use style="stroke:#000000;stroke-width:0.5;" x="27.103125" xlink:href="#m31f45ac00c" y="297.139377327"/>
      </g>
     </g>
    </g>
    <g id="ytick_15">
     <g id="line2d_34">
      <g>
       <use style="stroke:#000000;stroke-width:0.5;" x="27.103125" xlink:href="#m31f45ac00c" y="282.589360224"/>
      </g>
     </g>
    </g>
    <g id="ytick_16">
     <g id="line2d_35">
      <g>
       <use style="stroke:#000000;stroke-width:0.5;" x="27.103125" xlink:href="#m31f45ac00c" y="268.039343122"/>
      </g>
     </g>
    </g>
    <g id="ytick_17">
     <g id="line2d_36">
      <g>
       <use style="stroke:#000000;stroke-width:0.5;" x="27.103125" xlink:href="#m31f45ac00c" y="253.48932602"/>
      </g>
     </g>
    </g>
    <g id="ytick_18">
     <g id="line2d_37">
      <g>
       <use style="stroke:#000000;stroke-width:0.5;" x="27.103125" xlink:href="#m31f45ac00c" y="238.939308918"/>
      </g>
     </g>
    </g>
    <g id="ytick_19">
     <g id="line2d_38">
      <g>
       <use style="stroke:#000000;stroke-width:0.5;" x="27.103125" xlink:href="#m31f45ac00c" y="224.389291816"/>
      </g>
     </g>
    </g>
    <g id="ytick_20">
     <g id="line2d_39">
      <g>
       <use style="stroke:#000000;stroke-width:0.5;" x="27.103125" xlink:href="#m31f45ac00c" y="209.839274714"/>
      </g>
     </g>
    </g>
    <g id="ytick_21">
     <g id="line2d_40">
      <g>
       <use style="stroke:#000000;stroke-width:0.5;" x="27.103125" xlink:href="#m31f45ac00c" y="195.289257612"/>
      </g>
     </g>
    </g>
    <g id="ytick_22">
     <g id="line2d_41">
      <g>
       <use style="stroke:#000000;stroke-width:0.5;" x="27.103125" xlink:href="#m31f45ac00c" y="180.73924051"/>
      </g>
     </g>
    </g>
    <g id="ytick_23">
     <g id="line2d_42">
      <g>
       <use style="stroke:#000000;stroke-width:0.5;" x="27.103125" xlink:href="#m31f45ac00c" y="166.189223407"/>
      </g>
     </g>
    </g>
    <g id="ytick_24">
     <g id="line2d_43">
      <g>
       <use style="stroke:#000000;stroke-width:0.5;" x="27.103125" xlink:href="#m31f45ac00c" y="151.639206305"/>
      </g>
     </g>
    </g>
    <g id="ytick_25">
     <g id="line2d_44">
      <g>
       <use style="stroke:#000000;stroke-width:0.5;" x="27.103125" xlink:href="#m31f45ac00c" y="137.089189203"/>
      </g>
     </g>
    </g>
    <g id="ytick_26">
     <g id="line2d_45">
      <g>
       <use style="stroke:#000000;stroke-width:0.5;" x="27.103125" xlink:href="#m31f45ac00c" y="122.539172101"/>
      </g>
     </g>
    </g>
    <g id="ytick_27">
     <g id="line2d_46">
      <g>
       <use style="stroke:#000000;stroke-width:0.5;" x="27.103125" xlink:href="#m31f45ac00c" y="107.989154999"/>
      </g>
     </g>
    </g>
    <g id="ytick_28">
     <g id="line2d_47">
      <g>
       <use style="stroke:#000000;stroke-width:0.5;" x="27.103125" xlink:href="#m31f45ac00c" y="93.4391378969"/>
      </g>
     </g>
    </g>
    <g id="ytick_29">
     <g id="line2d_48">
      <g>
       <use style="stroke:#000000;stroke-width:0.5;" x="27.103125" xlink:href="#m31f45ac00c" y="78.8891207948"/>
      </g>
     </g>
    </g>
    <g id="ytick_30">
     <g id="line2d_49">
      <g>
       <use style="stroke:#000000;stroke-width:0.5;" x="27.103125" xlink:href="#m31f45ac00c" y="64.3391036927"/>
      </g>
     </g>
    </g>
    <g id="ytick_31">
     <g id="line2d_50">
      <g>
       <use style="stroke:#000000;stroke-width:0.5;" x="27.103125" xlink:href="#m31f45ac00c" y="49.7890865905"/>
      </g>
     </g>
    </g>
    <g id="ytick_32">
     <g id="line2d_51">
      <g>
       <use style="stroke:#000000;stroke-width:0.5;" x="27.103125" xlink:href="#m31f45ac00c" y="35.2390694884"/>
      </g>
     </g>
    </g>
    <g id="text_12">
     <!-- $time$ -->
     <defs>
      <path d="M 20.125 -1.125 
Q 15.328125 -1.125 11.734375 1.359375 
Q 8.15625 3.859375 6.265625 8.078125 
Q 4.390625 12.3125 4.390625 17 
Q 4.390625 24.125 7.984375 30.390625 
Q 11.578125 36.671875 17.71875 40.421875 
Q 23.875 44.1875 30.90625 44.1875 
Q 35.203125 44.1875 38.40625 41.96875 
Q 41.609375 39.75 41.609375 35.59375 
Q 41.609375 29.828125 37.015625 27.015625 
Q 32.421875 24.21875 26.65625 23.5625 
Q 20.90625 22.90625 13.921875 22.90625 
L 13.625 22.90625 
Q 12.015625 16.9375 12.015625 12.703125 
Q 12.015625 8.25 14.0625 4.875 
Q 16.109375 1.515625 20.3125 1.515625 
Q 26.265625 1.515625 31.75 4.25 
Q 37.25 6.984375 40.71875 11.8125 
Q 41.015625 12.109375 41.5 12.109375 
Q 42 12.109375 42.5 11.546875 
Q 43.015625 10.984375 43.015625 10.5 
Q 43.015625 10.109375 42.828125 9.90625 
Q 39.15625 4.78125 32.953125 1.828125 
Q 26.765625 -1.125 20.125 -1.125 
M 14.203125 25.484375 
Q 20.015625 25.484375 24.953125 26.015625 
Q 29.890625 26.5625 33.890625 28.734375 
Q 37.890625 30.90625 37.890625 35.5 
Q 37.890625 37.359375 36.859375 38.75 
Q 35.84375 40.140625 34.203125 40.875 
Q 32.5625 41.609375 30.8125 41.609375 
Q 26.5625 41.609375 23.171875 39.3125 
Q 19.78125 37.015625 17.578125 33.328125 
Q 15.375 29.640625 14.203125 25.484375 
" id="Cmmi10-65"/>
      <path d="M 7.71875 1.703125 
Q 7.71875 2.296875 7.8125 2.59375 
L 15.28125 32.421875 
Q 16.015625 35.203125 16.015625 37.3125 
Q 16.015625 41.609375 13.09375 41.609375 
Q 9.96875 41.609375 8.453125 37.859375 
Q 6.9375 34.125 5.515625 28.421875 
Q 5.515625 28.125 5.21875 27.953125 
Q 4.9375 27.78125 4.6875 27.78125 
L 3.515625 27.78125 
Q 3.171875 27.78125 2.921875 28.140625 
Q 2.6875 28.515625 2.6875 28.8125 
Q 3.765625 33.15625 4.765625 36.171875 
Q 5.765625 39.203125 7.890625 41.6875 
Q 10.015625 44.1875 13.1875 44.1875 
Q 16.9375 44.1875 19.8125 41.8125 
Q 22.703125 39.453125 22.703125 35.796875 
Q 25.6875 39.703125 29.6875 41.9375 
Q 33.6875 44.1875 38.1875 44.1875 
Q 42.921875 44.1875 46.359375 41.765625 
Q 49.8125 39.359375 49.8125 34.90625 
Q 52.875 39.265625 57 41.71875 
Q 61.140625 44.1875 66.015625 44.1875 
Q 71.1875 44.1875 74.328125 41.375 
Q 77.484375 38.578125 77.484375 33.40625 
Q 77.484375 29.296875 75.65625 23.484375 
Q 73.828125 17.671875 71.09375 10.5 
Q 69.671875 7.03125 69.671875 4.5 
Q 69.671875 1.515625 72.015625 1.515625 
Q 75.921875 1.515625 78.515625 5.703125 
Q 81.109375 9.90625 82.171875 14.703125 
Q 82.46875 15.28125 83.015625 15.28125 
L 84.1875 15.28125 
Q 84.578125 15.28125 84.84375 15.015625 
Q 85.109375 14.75 85.109375 14.40625 
Q 85.109375 14.3125 85.015625 14.109375 
Q 83.640625 8.453125 80.25 3.65625 
Q 76.859375 -1.125 71.78125 -1.125 
Q 68.265625 -1.125 65.765625 1.296875 
Q 63.28125 3.71875 63.28125 7.171875 
Q 63.28125 8.9375 64.109375 11.078125 
Q 66.9375 18.609375 68.8125 24.515625 
Q 70.703125 30.421875 70.703125 34.90625 
Q 70.703125 37.703125 69.578125 39.65625 
Q 68.453125 41.609375 65.828125 41.609375 
Q 60.359375 41.609375 56.34375 38.25 
Q 52.34375 34.90625 49.421875 29.390625 
Q 49.21875 28.421875 49.125 27.875 
L 42.671875 2.203125 
Q 42.328125 0.828125 41.125 -0.140625 
Q 39.9375 -1.125 38.484375 -1.125 
Q 37.3125 -1.125 36.40625 -0.34375 
Q 35.5 0.4375 35.5 1.703125 
Q 35.5 2.296875 35.59375 2.59375 
L 42 28.078125 
Q 43.015625 32.171875 43.015625 34.90625 
Q 43.015625 37.703125 41.859375 39.65625 
Q 40.71875 41.609375 37.984375 41.609375 
Q 34.328125 41.609375 31.25 39.984375 
Q 28.171875 38.375 25.875 35.71875 
Q 23.578125 33.0625 21.6875 29.390625 
L 14.890625 2.203125 
Q 14.546875 0.828125 13.34375 -0.140625 
Q 12.15625 -1.125 10.6875 -1.125 
Q 9.46875 -1.125 8.59375 -0.34375 
Q 7.71875 0.4375 7.71875 1.703125 
" id="Cmmi10-6d"/>
     </defs>
     <g transform="translate(10.703125 19.3575)scale(0.16 -0.16)">
      <use transform="translate(0.0 0.890625)" xlink:href="#Cmmi10-74"/>
      <use transform="translate(36.083984375 0.890625)" xlink:href="#Cmmi10-69"/>
      <use transform="translate(70.5078125 0.890625)" xlink:href="#Cmmi10-6d"/>
      <use transform="translate(158.30078125 0.890625)" xlink:href="#Cmmi10-65"/>
     </g>
    </g>
   </g>
   <g id="legend_1">
    <g id="patch_5">
     <path d="M 152.517115 100.9275 
L 503.20024 100.9275 
L 503.20024 38.685 
L 152.517115 38.685 
z
" style="fill:#4c4c4c;opacity:0.5;stroke:#4c4c4c;stroke-linejoin:miter;"/>
    </g>
    <g id="patch_6">
     <path d="M 150.517115 98.9275 
L 501.20024 98.9275 
L 501.20024 36.685 
L 150.517115 36.685 
z
" style="fill:#ffffff;stroke:#000000;stroke-linejoin:miter;"/>
    </g>
    <g id="PathCollection_6">
     <path d="M 161.317115 50.801808 
C 161.568709 50.801808 161.810032 50.701849 161.987935 50.523945 
C 162.165839 50.346042 162.265798 50.104719 162.265798 49.853125 
C 162.265798 49.601531 162.165839 49.360208 161.987935 49.182305 
C 161.810032 49.004401 161.568709 48.904442 161.317115 48.904442 
C 161.065521 48.904442 160.824198 49.004401 160.646295 49.182305 
C 160.468391 49.360208 160.368432 49.601531 160.368432 49.853125 
C 160.368432 50.104719 160.468391 50.346042 160.646295 50.523945 
C 160.824198 50.701849 161.065521 50.801808 161.317115 50.801808 
z
" style="fill:#ff0000;"/>
     <path d="M 158.017115 49.751808 
C 158.268709 49.751808 158.510032 49.651849 158.687935 49.473945 
C 158.865839 49.296042 158.965798 49.054719 158.965798 48.803125 
C 158.965798 48.551531 158.865839 48.310208 158.687935 48.132305 
C 158.510032 47.954401 158.268709 47.854442 158.017115 47.854442 
C 157.765521 47.854442 157.524198 47.954401 157.346295 48.132305 
C 157.168391 48.310208 157.068432 48.551531 157.068432 48.803125 
C 157.068432 49.054719 157.168391 49.296042 157.346295 49.473945 
C 157.524198 49.651849 157.765521 49.751808 158.017115 49.751808 
z
" style="fill:#ff0000;"/>
     <path d="M 154.717115 51.326808 
C 154.968709 51.326808 155.210032 51.226849 155.387935 51.048945 
C 155.565839 50.871042 155.665798 50.629719 155.665798 50.378125 
C 155.665798 50.126531 155.565839 49.885208 155.387935 49.707305 
C 155.210032 49.529401 154.968709 49.429442 154.717115 49.429442 
C 154.465521 49.429442 154.224198 49.529401 154.046295 49.707305 
C 153.868391 49.885208 153.768432 50.126531 153.768432 50.378125 
C 153.768432 50.629719 153.868391 50.871042 154.046295 51.048945 
C 154.224198 51.226849 154.465521 51.326808 154.717115 51.326808 
z
" style="fill:#ff0000;"/>
    </g>
    <g id="text_13">
     <!-- Gauss_Legendre -->
     <defs>
      <path d="M 9.8125 72.90625 
L 19.671875 72.90625 
L 19.671875 8.296875 
L 55.171875 8.296875 
L 55.171875 0 
L 9.8125 0 
z
" id="BitstreamVeraSans-Roman-4c"/>
      <path d="M 50.984375 -16.609375 
L 50.984375 -23.578125 
L -0.984375 -23.578125 
L -0.984375 -16.609375 
z
" id="BitstreamVeraSans-Roman-5f"/>
      <path d="M 54.890625 33.015625 
L 54.890625 0 
L 45.90625 0 
L 45.90625 32.71875 
Q 45.90625 40.484375 42.875 44.328125 
Q 39.84375 48.1875 33.796875 48.1875 
Q 26.515625 48.1875 22.3125 43.546875 
Q 18.109375 38.921875 18.109375 30.90625 
L 18.109375 0 
L 9.078125 0 
L 9.078125 54.6875 
L 18.109375 54.6875 
L 18.109375 46.1875 
Q 21.34375 51.125 25.703125 53.5625 
Q 30.078125 56 35.796875 56 
Q 45.21875 56 50.046875 50.171875 
Q 54.890625 44.34375 54.890625 33.015625 
" id="BitstreamVeraSans-Roman-6e"/>
      <path d="M 41.109375 46.296875 
Q 39.59375 47.171875 37.8125 47.578125 
Q 36.03125 48 33.890625 48 
Q 26.265625 48 22.1875 43.046875 
Q 18.109375 38.09375 18.109375 28.8125 
L 18.109375 0 
L 9.078125 0 
L 9.078125 54.6875 
L 18.109375 54.6875 
L 18.109375 46.1875 
Q 20.953125 51.171875 25.484375 53.578125 
Q 30.03125 56 36.53125 56 
Q 37.453125 56 38.578125 55.875 
Q 39.703125 55.765625 41.0625 55.515625 
z
" id="BitstreamVeraSans-Roman-72"/>
      <path d="M 59.515625 10.40625 
L 59.515625 29.984375 
L 43.40625 29.984375 
L 43.40625 38.09375 
L 69.28125 38.09375 
L 69.28125 6.78125 
Q 63.578125 2.734375 56.6875 0.65625 
Q 49.8125 -1.421875 42 -1.421875 
Q 24.90625 -1.421875 15.25 8.5625 
Q 5.609375 18.5625 5.609375 36.375 
Q 5.609375 54.25 15.25 64.234375 
Q 24.90625 74.21875 42 74.21875 
Q 49.125 74.21875 55.546875 72.453125 
Q 61.96875 70.703125 67.390625 67.28125 
L 67.390625 56.78125 
Q 61.921875 61.421875 55.765625 63.765625 
Q 49.609375 66.109375 42.828125 66.109375 
Q 29.4375 66.109375 22.71875 58.640625 
Q 16.015625 51.171875 16.015625 36.375 
Q 16.015625 21.625 22.71875 14.15625 
Q 29.4375 6.6875 42.828125 6.6875 
Q 48.046875 6.6875 52.140625 7.59375 
Q 56.25 8.5 59.515625 10.40625 
" id="BitstreamVeraSans-Roman-47"/>
      <path d="M 56.203125 29.59375 
L 56.203125 25.203125 
L 14.890625 25.203125 
Q 15.484375 15.921875 20.484375 11.0625 
Q 25.484375 6.203125 34.421875 6.203125 
Q 39.59375 6.203125 44.453125 7.46875 
Q 49.3125 8.734375 54.109375 11.28125 
L 54.109375 2.78125 
Q 49.265625 0.734375 44.1875 -0.34375 
Q 39.109375 -1.421875 33.890625 -1.421875 
Q 20.796875 -1.421875 13.15625 6.1875 
Q 5.515625 13.8125 5.515625 26.8125 
Q 5.515625 40.234375 12.765625 48.109375 
Q 20.015625 56 32.328125 56 
Q 43.359375 56 49.78125 48.890625 
Q 56.203125 41.796875 56.203125 29.59375 
M 47.21875 32.234375 
Q 47.125 39.59375 43.09375 43.984375 
Q 39.0625 48.390625 32.421875 48.390625 
Q 24.90625 48.390625 20.390625 44.140625 
Q 15.875 39.890625 15.1875 32.171875 
z
" id="BitstreamVeraSans-Roman-65"/>
      <path d="M 45.40625 46.390625 
L 45.40625 75.984375 
L 54.390625 75.984375 
L 54.390625 0 
L 45.40625 0 
L 45.40625 8.203125 
Q 42.578125 3.328125 38.25 0.953125 
Q 33.9375 -1.421875 27.875 -1.421875 
Q 17.96875 -1.421875 11.734375 6.484375 
Q 5.515625 14.40625 5.515625 27.296875 
Q 5.515625 40.1875 11.734375 48.09375 
Q 17.96875 56 27.875 56 
Q 33.9375 56 38.25 53.625 
Q 42.578125 51.265625 45.40625 46.390625 
M 14.796875 27.296875 
Q 14.796875 17.390625 18.875 11.75 
Q 22.953125 6.109375 30.078125 6.109375 
Q 37.203125 6.109375 41.296875 11.75 
Q 45.40625 17.390625 45.40625 27.296875 
Q 45.40625 37.203125 41.296875 42.84375 
Q 37.203125 48.484375 30.078125 48.484375 
Q 22.953125 48.484375 18.875 42.84375 
Q 14.796875 37.203125 14.796875 27.296875 
" id="BitstreamVeraSans-Roman-64"/>
      <path d="M 45.40625 27.984375 
Q 45.40625 37.75 41.375 43.109375 
Q 37.359375 48.484375 30.078125 48.484375 
Q 22.859375 48.484375 18.828125 43.109375 
Q 14.796875 37.75 14.796875 27.984375 
Q 14.796875 18.265625 18.828125 12.890625 
Q 22.859375 7.515625 30.078125 7.515625 
Q 37.359375 7.515625 41.375 12.890625 
Q 45.40625 18.265625 45.40625 27.984375 
M 54.390625 6.78125 
Q 54.390625 -7.171875 48.1875 -13.984375 
Q 42 -20.796875 29.203125 -20.796875 
Q 24.46875 -20.796875 20.265625 -20.09375 
Q 16.0625 -19.390625 12.109375 -17.921875 
L 12.109375 -9.1875 
Q 16.0625 -11.328125 19.921875 -12.34375 
Q 23.78125 -13.375 27.78125 -13.375 
Q 36.625 -13.375 41.015625 -8.765625 
Q 45.40625 -4.15625 45.40625 5.171875 
L 45.40625 9.625 
Q 42.625 4.78125 38.28125 2.390625 
Q 33.9375 0 27.875 0 
Q 17.828125 0 11.671875 7.65625 
Q 5.515625 15.328125 5.515625 27.984375 
Q 5.515625 40.671875 11.671875 48.328125 
Q 17.828125 56 27.875 56 
Q 33.9375 56 38.28125 53.609375 
Q 42.625 51.21875 45.40625 46.390625 
L 45.40625 54.6875 
L 54.390625 54.6875 
z
" id="BitstreamVeraSans-Roman-67"/>
      <path d="M 8.5 21.578125 
L 8.5 54.6875 
L 17.484375 54.6875 
L 17.484375 21.921875 
Q 17.484375 14.15625 20.5 10.265625 
Q 23.53125 6.390625 29.59375 6.390625 
Q 36.859375 6.390625 41.078125 11.03125 
Q 45.3125 15.671875 45.3125 23.6875 
L 45.3125 54.6875 
L 54.296875 54.6875 
L 54.296875 0 
L 45.3125 0 
L 45.3125 8.40625 
Q 42.046875 3.421875 37.71875 1 
Q 33.40625 -1.421875 27.6875 -1.421875 
Q 18.265625 -1.421875 13.375 4.4375 
Q 8.5 10.296875 8.5 21.578125 
" id="BitstreamVeraSans-Roman-75"/>
      <path d="M 34.28125 27.484375 
Q 23.390625 27.484375 19.1875 25 
Q 14.984375 22.515625 14.984375 16.5 
Q 14.984375 11.71875 18.140625 8.90625 
Q 21.296875 6.109375 26.703125 6.109375 
Q 34.1875 6.109375 38.703125 11.40625 
Q 43.21875 16.703125 43.21875 25.484375 
L 43.21875 27.484375 
z
M 52.203125 31.203125 
L 52.203125 0 
L 43.21875 0 
L 43.21875 8.296875 
Q 40.140625 3.328125 35.546875 0.953125 
Q 30.953125 -1.421875 24.3125 -1.421875 
Q 15.921875 -1.421875 10.953125 3.296875 
Q 6 8.015625 6 15.921875 
Q 6 25.140625 12.171875 29.828125 
Q 18.359375 34.515625 30.609375 34.515625 
L 43.21875 34.515625 
L 43.21875 35.40625 
Q 43.21875 41.609375 39.140625 45 
Q 35.0625 48.390625 27.6875 48.390625 
Q 23 48.390625 18.546875 47.265625 
Q 14.109375 46.140625 10.015625 43.890625 
L 10.015625 52.203125 
Q 14.9375 54.109375 19.578125 55.046875 
Q 24.21875 56 28.609375 56 
Q 40.484375 56 46.34375 49.84375 
Q 52.203125 43.703125 52.203125 31.203125 
" id="BitstreamVeraSans-Roman-61"/>
      <path d="M 44.28125 53.078125 
L 44.28125 44.578125 
Q 40.484375 46.53125 36.375 47.5 
Q 32.28125 48.484375 27.875 48.484375 
Q 21.1875 48.484375 17.84375 46.4375 
Q 14.5 44.390625 14.5 40.28125 
Q 14.5 37.15625 16.890625 35.375 
Q 19.28125 33.59375 26.515625 31.984375 
L 29.59375 31.296875 
Q 39.15625 29.25 43.1875 25.515625 
Q 47.21875 21.78125 47.21875 15.09375 
Q 47.21875 7.46875 41.1875 3.015625 
Q 35.15625 -1.421875 24.609375 -1.421875 
Q 20.21875 -1.421875 15.453125 -0.5625 
Q 10.6875 0.296875 5.421875 2 
L 5.421875 11.28125 
Q 10.40625 8.6875 15.234375 7.390625 
Q 20.0625 6.109375 24.8125 6.109375 
Q 31.15625 6.109375 34.5625 8.28125 
Q 37.984375 10.453125 37.984375 14.40625 
Q 37.984375 18.0625 35.515625 20.015625 
Q 33.0625 21.96875 24.703125 23.78125 
L 21.578125 24.515625 
Q 13.234375 26.265625 9.515625 29.90625 
Q 5.8125 33.546875 5.8125 39.890625 
Q 5.8125 47.609375 11.28125 51.796875 
Q 16.75 56 26.8125 56 
Q 31.78125 56 36.171875 55.265625 
Q 40.578125 54.546875 44.28125 53.078125 
" id="BitstreamVeraSans-Roman-73"/>
     </defs>
     <g transform="translate(164.317114981 53.003125)scale(0.12 -0.12)">
      <use xlink:href="#BitstreamVeraSans-Roman-47"/>
      <use x="77.490234375" xlink:href="#BitstreamVeraSans-Roman-61"/>
      <use x="138.76953125" xlink:href="#BitstreamVeraSans-Roman-75"/>
      <use x="202.1484375" xlink:href="#BitstreamVeraSans-Roman-73"/>
      <use x="254.248046875" xlink:href="#BitstreamVeraSans-Roman-73"/>
      <use x="306.34765625" xlink:href="#BitstreamVeraSans-Roman-5f"/>
      <use x="356.34765625" xlink:href="#BitstreamVeraSans-Roman-4c"/>
      <use x="412.044921875" xlink:href="#BitstreamVeraSans-Roman-65"/>
      <use x="473.568359375" xlink:href="#BitstreamVeraSans-Roman-67"/>
      <use x="537.044921875" xlink:href="#BitstreamVeraSans-Roman-65"/>
      <use x="598.568359375" xlink:href="#BitstreamVeraSans-Roman-6e"/>
      <use x="661.947265625" xlink:href="#BitstreamVeraSans-Roman-64"/>
      <use x="725.423828125" xlink:href="#BitstreamVeraSans-Roman-72"/>
      <use x="766.505859375" xlink:href="#BitstreamVeraSans-Roman-65"/>
     </g>
    </g>
    <g id="PathCollection_7">
     <path d="M 161.317115 62.989308 
C 161.568709 62.989308 161.810032 62.889349 161.987935 62.711445 
C 162.165839 62.533542 162.265798 62.292219 162.265798 62.040625 
C 162.265798 61.789031 162.165839 61.547708 161.987935 61.369805 
C 161.810032 61.191901 161.568709 61.091942 161.317115 61.091942 
C 161.065521 61.091942 160.824198 61.191901 160.646295 61.369805 
C 160.468391 61.547708 160.368432 61.789031 160.368432 62.040625 
C 160.368432 62.292219 160.468391 62.533542 160.646295 62.711445 
C 160.824198 62.889349 161.065521 62.989308 161.317115 62.989308 
z
" style="fill:#0000ff;"/>
     <path d="M 158.017115 61.939308 
C 158.268709 61.939308 158.510032 61.839349 158.687935 61.661445 
C 158.865839 61.483542 158.965798 61.242219 158.965798 60.990625 
C 158.965798 60.739031 158.865839 60.497708 158.687935 60.319805 
C 158.510032 60.141901 158.268709 60.041942 158.017115 60.041942 
C 157.765521 60.041942 157.524198 60.141901 157.346295 60.319805 
C 157.168391 60.497708 157.068432 60.739031 157.068432 60.990625 
C 157.068432 61.242219 157.168391 61.483542 157.346295 61.661445 
C 157.524198 61.839349 157.765521 61.939308 158.017115 61.939308 
z
" style="fill:#0000ff;"/>
     <path d="M 154.717115 63.514308 
C 154.968709 63.514308 155.210032 63.414349 155.387935 63.236445 
C 155.565839 63.058542 155.665798 62.817219 155.665798 62.565625 
C 155.665798 62.314031 155.565839 62.072708 155.387935 61.894805 
C 155.210032 61.716901 154.968709 61.616942 154.717115 61.616942 
C 154.465521 61.616942 154.224198 61.716901 154.046295 61.894805 
C 153.868391 62.072708 153.768432 62.314031 153.768432 62.565625 
C 153.768432 62.817219 153.868391 63.058542 154.046295 63.236445 
C 154.224198 63.414349 154.465521 63.514308 154.717115 63.514308 
z
" style="fill:#0000ff;"/>
    </g>
    <g id="text_14">
     <!-- Reverse_Tan -->
     <defs>
      <path d="M 2.984375 54.6875 
L 12.5 54.6875 
L 29.59375 8.796875 
L 46.6875 54.6875 
L 56.203125 54.6875 
L 35.6875 0 
L 23.484375 0 
z
" id="BitstreamVeraSans-Roman-76"/>
      <path d="M 44.390625 34.1875 
Q 47.5625 33.109375 50.5625 29.59375 
Q 53.5625 26.078125 56.59375 19.921875 
L 66.609375 0 
L 56 0 
L 46.6875 18.703125 
Q 43.0625 26.03125 39.671875 28.421875 
Q 36.28125 30.8125 30.421875 30.8125 
L 19.671875 30.8125 
L 19.671875 0 
L 9.8125 0 
L 9.8125 72.90625 
L 32.078125 72.90625 
Q 44.578125 72.90625 50.734375 67.671875 
Q 56.890625 62.453125 56.890625 51.90625 
Q 56.890625 45.015625 53.6875 40.46875 
Q 50.484375 35.9375 44.390625 34.1875 
M 19.671875 64.796875 
L 19.671875 38.921875 
L 32.078125 38.921875 
Q 39.203125 38.921875 42.84375 42.21875 
Q 46.484375 45.515625 46.484375 51.90625 
Q 46.484375 58.296875 42.84375 61.546875 
Q 39.203125 64.796875 32.078125 64.796875 
z
" id="BitstreamVeraSans-Roman-52"/>
      <path d="M -0.296875 72.90625 
L 61.375 72.90625 
L 61.375 64.59375 
L 35.5 64.59375 
L 35.5 0 
L 25.59375 0 
L 25.59375 64.59375 
L -0.296875 64.59375 
z
" id="BitstreamVeraSans-Roman-54"/>
     </defs>
     <g transform="translate(164.317114981 65.190625)scale(0.12 -0.12)">
      <use xlink:href="#BitstreamVeraSans-Roman-52"/>
      <use x="69.419921875" xlink:href="#BitstreamVeraSans-Roman-65"/>
      <use x="130.943359375" xlink:href="#BitstreamVeraSans-Roman-76"/>
      <use x="190.123046875" xlink:href="#BitstreamVeraSans-Roman-65"/>
      <use x="251.646484375" xlink:href="#BitstreamVeraSans-Roman-72"/>
      <use x="292.759765625" xlink:href="#BitstreamVeraSans-Roman-73"/>
      <use x="344.859375" xlink:href="#BitstreamVeraSans-Roman-65"/>
      <use x="406.3828125" xlink:href="#BitstreamVeraSans-Roman-5f"/>
      <use x="456.3828125" xlink:href="#BitstreamVeraSans-Roman-54"/>
      <use x="517.216796875" xlink:href="#BitstreamVeraSans-Roman-61"/>
      <use x="578.49609375" xlink:href="#BitstreamVeraSans-Roman-6e"/>
     </g>
    </g>
    <g id="PathCollection_8">
     <path d="M 161.317115 75.176808 
C 161.568709 75.176808 161.810032 75.076849 161.987935 74.898945 
C 162.165839 74.721042 162.265798 74.479719 162.265798 74.228125 
C 162.265798 73.976531 162.165839 73.735208 161.987935 73.557305 
C 161.810032 73.379401 161.568709 73.279442 161.317115 73.279442 
C 161.065521 73.279442 160.824198 73.379401 160.646295 73.557305 
C 160.468391 73.735208 160.368432 73.976531 160.368432 74.228125 
C 160.368432 74.479719 160.468391 74.721042 160.646295 74.898945 
C 160.824198 75.076849 161.065521 75.176808 161.317115 75.176808 
z
" style="fill:#008000;"/>
     <path d="M 158.017115 74.126808 
C 158.268709 74.126808 158.510032 74.026849 158.687935 73.848945 
C 158.865839 73.671042 158.965798 73.429719 158.965798 73.178125 
C 158.965798 72.926531 158.865839 72.685208 158.687935 72.507305 
C 158.510032 72.329401 158.268709 72.229442 158.017115 72.229442 
C 157.765521 72.229442 157.524198 72.329401 157.346295 72.507305 
C 157.168391 72.685208 157.068432 72.926531 157.068432 73.178125 
C 157.068432 73.429719 157.168391 73.671042 157.346295 73.848945 
C 157.524198 74.026849 157.765521 74.126808 158.017115 74.126808 
z
" style="fill:#008000;"/>
     <path d="M 154.717115 75.701808 
C 154.968709 75.701808 155.210032 75.601849 155.387935 75.423945 
C 155.565839 75.246042 155.665798 75.004719 155.665798 74.753125 
C 155.665798 74.501531 155.565839 74.260208 155.387935 74.082305 
C 155.210032 73.904401 154.968709 73.804442 154.717115 73.804442 
C 154.465521 73.804442 154.224198 73.904401 154.046295 74.082305 
C 153.868391 74.260208 153.768432 74.501531 153.768432 74.753125 
C 153.768432 75.004719 153.868391 75.246042 154.046295 75.423945 
C 154.224198 75.601849 154.465521 75.701808 154.717115 75.701808 
z
" style="fill:#008000;"/>
    </g>
    <g id="text_15">
     <!-- Jeremy Gibbons's Unbounded Spigot -->
     <defs>
      <path id="BitstreamVeraSans-Roman-20"/>
      <path d="M 17.921875 72.90625 
L 17.921875 45.796875 
L 9.625 45.796875 
L 9.625 72.90625 
z
" id="BitstreamVeraSans-Roman-27"/>
      <path d="M 9.8125 72.90625 
L 19.671875 72.90625 
L 19.671875 5.078125 
Q 19.671875 -8.109375 14.671875 -14.0625 
Q 9.671875 -20.015625 -1.421875 -20.015625 
L -5.171875 -20.015625 
L -5.171875 -11.71875 
L -2.09375 -11.71875 
Q 4.4375 -11.71875 7.125 -8.046875 
Q 9.8125 -4.390625 9.8125 5.078125 
z
" id="BitstreamVeraSans-Roman-4a"/>
      <path d="M 52 44.1875 
Q 55.375 50.25 60.0625 53.125 
Q 64.75 56 71.09375 56 
Q 79.640625 56 84.28125 50.015625 
Q 88.921875 44.046875 88.921875 33.015625 
L 88.921875 0 
L 79.890625 0 
L 79.890625 32.71875 
Q 79.890625 40.578125 77.09375 44.375 
Q 74.3125 48.1875 68.609375 48.1875 
Q 61.625 48.1875 57.5625 43.546875 
Q 53.515625 38.921875 53.515625 30.90625 
L 53.515625 0 
L 44.484375 0 
L 44.484375 32.71875 
Q 44.484375 40.625 41.703125 44.40625 
Q 38.921875 48.1875 33.109375 48.1875 
Q 26.21875 48.1875 22.15625 43.53125 
Q 18.109375 38.875 18.109375 30.90625 
L 18.109375 0 
L 9.078125 0 
L 9.078125 54.6875 
L 18.109375 54.6875 
L 18.109375 46.1875 
Q 21.1875 51.21875 25.484375 53.609375 
Q 29.78125 56 35.6875 56 
Q 41.65625 56 45.828125 52.96875 
Q 50 49.953125 52 44.1875 
" id="BitstreamVeraSans-Roman-6d"/>
      <path d="M 30.609375 48.390625 
Q 23.390625 48.390625 19.1875 42.75 
Q 14.984375 37.109375 14.984375 27.296875 
Q 14.984375 17.484375 19.15625 11.84375 
Q 23.34375 6.203125 30.609375 6.203125 
Q 37.796875 6.203125 41.984375 11.859375 
Q 46.1875 17.53125 46.1875 27.296875 
Q 46.1875 37.015625 41.984375 42.703125 
Q 37.796875 48.390625 30.609375 48.390625 
M 30.609375 56 
Q 42.328125 56 49.015625 48.375 
Q 55.71875 40.765625 55.71875 27.296875 
Q 55.71875 13.875 49.015625 6.21875 
Q 42.328125 -1.421875 30.609375 -1.421875 
Q 18.84375 -1.421875 12.171875 6.21875 
Q 5.515625 13.875 5.515625 27.296875 
Q 5.515625 40.765625 12.171875 48.375 
Q 18.84375 56 30.609375 56 
" id="BitstreamVeraSans-Roman-6f"/>
      <path d="M 53.515625 70.515625 
L 53.515625 60.890625 
Q 47.90625 63.578125 42.921875 64.890625 
Q 37.9375 66.21875 33.296875 66.21875 
Q 25.25 66.21875 20.875 63.09375 
Q 16.5 59.96875 16.5 54.203125 
Q 16.5 49.359375 19.40625 46.890625 
Q 22.3125 44.4375 30.421875 42.921875 
L 36.375 41.703125 
Q 47.40625 39.59375 52.65625 34.296875 
Q 57.90625 29 57.90625 20.125 
Q 57.90625 9.515625 50.796875 4.046875 
Q 43.703125 -1.421875 29.984375 -1.421875 
Q 24.8125 -1.421875 18.96875 -0.25 
Q 13.140625 0.921875 6.890625 3.21875 
L 6.890625 13.375 
Q 12.890625 10.015625 18.65625 8.296875 
Q 24.421875 6.59375 29.984375 6.59375 
Q 38.421875 6.59375 43.015625 9.90625 
Q 47.609375 13.234375 47.609375 19.390625 
Q 47.609375 24.75 44.3125 27.78125 
Q 41.015625 30.8125 33.5 32.328125 
L 27.484375 33.5 
Q 16.453125 35.6875 11.515625 40.375 
Q 6.59375 45.0625 6.59375 53.421875 
Q 6.59375 63.09375 13.40625 68.65625 
Q 20.21875 74.21875 32.171875 74.21875 
Q 37.3125 74.21875 42.625 73.28125 
Q 47.953125 72.359375 53.515625 70.515625 
" id="BitstreamVeraSans-Roman-53"/>
      <path d="M 9.421875 54.6875 
L 18.40625 54.6875 
L 18.40625 0 
L 9.421875 0 
z
M 9.421875 75.984375 
L 18.40625 75.984375 
L 18.40625 64.59375 
L 9.421875 64.59375 
z
" id="BitstreamVeraSans-Roman-69"/>
      <path d="M 8.6875 72.90625 
L 18.609375 72.90625 
L 18.609375 28.609375 
Q 18.609375 16.890625 22.84375 11.734375 
Q 27.09375 6.59375 36.625 6.59375 
Q 46.09375 6.59375 50.34375 11.734375 
Q 54.59375 16.890625 54.59375 28.609375 
L 54.59375 72.90625 
L 64.5 72.90625 
L 64.5 27.390625 
Q 64.5 13.140625 57.4375 5.859375 
Q 50.390625 -1.421875 36.625 -1.421875 
Q 22.796875 -1.421875 15.734375 5.859375 
Q 8.6875 13.140625 8.6875 27.390625 
z
" id="BitstreamVeraSans-Roman-55"/>
      <path d="M 32.171875 -5.078125 
Q 28.375 -14.84375 24.75 -17.8125 
Q 21.140625 -20.796875 15.09375 -20.796875 
L 7.90625 -20.796875 
L 7.90625 -13.28125 
L 13.1875 -13.28125 
Q 16.890625 -13.28125 18.9375 -11.515625 
Q 21 -9.765625 23.484375 -3.21875 
L 25.09375 0.875 
L 2.984375 54.6875 
L 12.5 54.6875 
L 29.59375 11.921875 
L 46.6875 54.6875 
L 56.203125 54.6875 
z
" id="BitstreamVeraSans-Roman-79"/>
      <path d="M 18.3125 70.21875 
L 18.3125 54.6875 
L 36.8125 54.6875 
L 36.8125 47.703125 
L 18.3125 47.703125 
L 18.3125 18.015625 
Q 18.3125 11.328125 20.140625 9.421875 
Q 21.96875 7.515625 27.59375 7.515625 
L 36.8125 7.515625 
L 36.8125 0 
L 27.59375 0 
Q 17.1875 0 13.234375 3.875 
Q 9.28125 7.765625 9.28125 18.015625 
L 9.28125 47.703125 
L 2.6875 47.703125 
L 2.6875 54.6875 
L 9.28125 54.6875 
L 9.28125 70.21875 
z
" id="BitstreamVeraSans-Roman-74"/>
      <path d="M 18.109375 8.203125 
L 18.109375 -20.796875 
L 9.078125 -20.796875 
L 9.078125 54.6875 
L 18.109375 54.6875 
L 18.109375 46.390625 
Q 20.953125 51.265625 25.265625 53.625 
Q 29.59375 56 35.59375 56 
Q 45.5625 56 51.78125 48.09375 
Q 58.015625 40.1875 58.015625 27.296875 
Q 58.015625 14.40625 51.78125 6.484375 
Q 45.5625 -1.421875 35.59375 -1.421875 
Q 29.59375 -1.421875 25.265625 0.953125 
Q 20.953125 3.328125 18.109375 8.203125 
M 48.6875 27.296875 
Q 48.6875 37.203125 44.609375 42.84375 
Q 40.53125 48.484375 33.40625 48.484375 
Q 26.265625 48.484375 22.1875 42.84375 
Q 18.109375 37.203125 18.109375 27.296875 
Q 18.109375 17.390625 22.1875 11.75 
Q 26.265625 6.109375 33.40625 6.109375 
Q 40.53125 6.109375 44.609375 11.75 
Q 48.6875 17.390625 48.6875 27.296875 
" id="BitstreamVeraSans-Roman-70"/>
      <path d="M 48.6875 27.296875 
Q 48.6875 37.203125 44.609375 42.84375 
Q 40.53125 48.484375 33.40625 48.484375 
Q 26.265625 48.484375 22.1875 42.84375 
Q 18.109375 37.203125 18.109375 27.296875 
Q 18.109375 17.390625 22.1875 11.75 
Q 26.265625 6.109375 33.40625 6.109375 
Q 40.53125 6.109375 44.609375 11.75 
Q 48.6875 17.390625 48.6875 27.296875 
M 18.109375 46.390625 
Q 20.953125 51.265625 25.265625 53.625 
Q 29.59375 56 35.59375 56 
Q 45.5625 56 51.78125 48.09375 
Q 58.015625 40.1875 58.015625 27.296875 
Q 58.015625 14.40625 51.78125 6.484375 
Q 45.5625 -1.421875 35.59375 -1.421875 
Q 29.59375 -1.421875 25.265625 0.953125 
Q 20.953125 3.328125 18.109375 8.203125 
L 18.109375 0 
L 9.078125 0 
L 9.078125 75.984375 
L 18.109375 75.984375 
z
" id="BitstreamVeraSans-Roman-62"/>
     </defs>
     <g transform="translate(164.317114981 77.378125)scale(0.12 -0.12)">
      <use xlink:href="#BitstreamVeraSans-Roman-4a"/>
      <use x="29.4921875" xlink:href="#BitstreamVeraSans-Roman-65"/>
      <use x="91.015625" xlink:href="#BitstreamVeraSans-Roman-72"/>
      <use x="132.09765625" xlink:href="#BitstreamVeraSans-Roman-65"/>
      <use x="193.62109375" xlink:href="#BitstreamVeraSans-Roman-6d"/>
      <use x="291.033203125" xlink:href="#BitstreamVeraSans-Roman-79"/>
      <use x="350.212890625" xlink:href="#BitstreamVeraSans-Roman-20"/>
      <use x="382.0" xlink:href="#BitstreamVeraSans-Roman-47"/>
      <use x="459.490234375" xlink:href="#BitstreamVeraSans-Roman-69"/>
      <use x="487.2734375" xlink:href="#BitstreamVeraSans-Roman-62"/>
      <use x="550.75" xlink:href="#BitstreamVeraSans-Roman-62"/>
      <use x="614.2265625" xlink:href="#BitstreamVeraSans-Roman-6f"/>
      <use x="675.408203125" xlink:href="#BitstreamVeraSans-Roman-6e"/>
      <use x="738.787109375" xlink:href="#BitstreamVeraSans-Roman-73"/>
      <use x="790.88671875" xlink:href="#BitstreamVeraSans-Roman-27"/>
      <use x="818.376953125" xlink:href="#BitstreamVeraSans-Roman-73"/>
      <use x="870.4765625" xlink:href="#BitstreamVeraSans-Roman-20"/>
      <use x="902.263671875" xlink:href="#BitstreamVeraSans-Roman-55"/>
      <use x="975.45703125" xlink:href="#BitstreamVeraSans-Roman-6e"/>
      <use x="1038.8359375" xlink:href="#BitstreamVeraSans-Roman-62"/>
      <use x="1102.3125" xlink:href="#BitstreamVeraSans-Roman-6f"/>
      <use x="1163.49414062" xlink:href="#BitstreamVeraSans-Roman-75"/>
      <use x="1226.87304688" xlink:href="#BitstreamVeraSans-Roman-6e"/>
      <use x="1290.25195312" xlink:href="#BitstreamVeraSans-Roman-64"/>
      <use x="1353.72851562" xlink:href="#BitstreamVeraSans-Roman-65"/>
      <use x="1415.25195312" xlink:href="#BitstreamVeraSans-Roman-64"/>
      <use x="1478.72851562" xlink:href="#BitstreamVeraSans-Roman-20"/>
      <use x="1510.515625" xlink:href="#BitstreamVeraSans-Roman-53"/>
      <use x="1573.9921875" xlink:href="#BitstreamVeraSans-Roman-70"/>
      <use x="1637.46875" xlink:href="#BitstreamVeraSans-Roman-69"/>
      <use x="1665.25195312" xlink:href="#BitstreamVeraSans-Roman-67"/>
      <use x="1728.72851562" xlink:href="#BitstreamVeraSans-Roman-6f"/>
      <use x="1789.91015625" xlink:href="#BitstreamVeraSans-Roman-74"/>
     </g>
    </g>
    <g id="PathCollection_9">
     <path d="M 161.317115 87.030558 
C 161.568709 87.030558 161.810032 86.930599 161.987935 86.752695 
C 162.165839 86.574792 162.265798 86.333469 162.265798 86.081875 
C 162.265798 85.830281 162.165839 85.588958 161.987935 85.411055 
C 161.810032 85.233151 161.568709 85.133192 161.317115 85.133192 
C 161.065521 85.133192 160.824198 85.233151 160.646295 85.411055 
C 160.468391 85.588958 160.368432 85.830281 160.368432 86.081875 
C 160.368432 86.333469 160.468391 86.574792 160.646295 86.752695 
C 160.824198 86.930599 161.065521 87.030558 161.317115 87.030558 
z
" style="fill:#ffa500;"/>
     <path d="M 158.017115 85.980558 
C 158.268709 85.980558 158.510032 85.880599 158.687935 85.702695 
C 158.865839 85.524792 158.965798 85.283469 158.965798 85.031875 
C 158.965798 84.780281 158.865839 84.538958 158.687935 84.361055 
C 158.510032 84.183151 158.268709 84.083192 158.017115 84.083192 
C 157.765521 84.083192 157.524198 84.183151 157.346295 84.361055 
C 157.168391 84.538958 157.068432 84.780281 157.068432 85.031875 
C 157.068432 85.283469 157.168391 85.524792 157.346295 85.702695 
C 157.524198 85.880599 157.765521 85.980558 158.017115 85.980558 
z
" style="fill:#ffa500;"/>
     <path d="M 154.717115 87.555558 
C 154.968709 87.555558 155.210032 87.455599 155.387935 87.277695 
C 155.565839 87.099792 155.665798 86.858469 155.665798 86.606875 
C 155.665798 86.355281 155.565839 86.113958 155.387935 85.936055 
C 155.210032 85.758151 154.968709 85.658192 154.717115 85.658192 
C 154.465521 85.658192 154.224198 85.758151 154.046295 85.936055 
C 153.868391 86.113958 153.768432 86.355281 153.768432 86.606875 
C 153.768432 86.858469 153.868391 87.099792 154.046295 87.277695 
C 154.224198 87.455599 154.465521 87.555558 154.717115 87.555558 
z
" style="fill:#ffa500;"/>
    </g>
    <g id="text_16">
     <!-- Stanley Rabinowitz and Stan Wagon's spigot algorithm -->
     <defs>
      <path d="M 4.203125 54.6875 
L 13.1875 54.6875 
L 24.421875 12.015625 
L 35.59375 54.6875 
L 46.1875 54.6875 
L 57.421875 12.015625 
L 68.609375 54.6875 
L 77.59375 54.6875 
L 63.28125 0 
L 52.6875 0 
L 40.921875 44.828125 
L 29.109375 0 
L 18.5 0 
z
" id="BitstreamVeraSans-Roman-77"/>
      <path d="M 3.328125 72.90625 
L 13.28125 72.90625 
L 28.609375 11.28125 
L 43.890625 72.90625 
L 54.984375 72.90625 
L 70.3125 11.28125 
L 85.59375 72.90625 
L 95.609375 72.90625 
L 77.296875 0 
L 64.890625 0 
L 49.515625 63.28125 
L 33.984375 0 
L 21.578125 0 
z
" id="BitstreamVeraSans-Roman-57"/>
      <path d="M 54.890625 33.015625 
L 54.890625 0 
L 45.90625 0 
L 45.90625 32.71875 
Q 45.90625 40.484375 42.875 44.328125 
Q 39.84375 48.1875 33.796875 48.1875 
Q 26.515625 48.1875 22.3125 43.546875 
Q 18.109375 38.921875 18.109375 30.90625 
L 18.109375 0 
L 9.078125 0 
L 9.078125 75.984375 
L 18.109375 75.984375 
L 18.109375 46.1875 
Q 21.34375 51.125 25.703125 53.5625 
Q 30.078125 56 35.796875 56 
Q 45.21875 56 50.046875 50.171875 
Q 54.890625 44.34375 54.890625 33.015625 
" id="BitstreamVeraSans-Roman-68"/>
      <path d="M 9.421875 75.984375 
L 18.40625 75.984375 
L 18.40625 0 
L 9.421875 0 
z
" id="BitstreamVeraSans-Roman-6c"/>
      <path d="M 5.515625 54.6875 
L 48.1875 54.6875 
L 48.1875 46.484375 
L 14.40625 7.171875 
L 48.1875 7.171875 
L 48.1875 0 
L 4.296875 0 
L 4.296875 8.203125 
L 38.09375 47.515625 
L 5.515625 47.515625 
z
" id="BitstreamVeraSans-Roman-7a"/>
     </defs>
     <g transform="translate(164.317114981 89.231875)scale(0.12 -0.12)">
      <use xlink:href="#BitstreamVeraSans-Roman-53"/>
      <use x="63.4765625" xlink:href="#BitstreamVeraSans-Roman-74"/>
      <use x="102.685546875" xlink:href="#BitstreamVeraSans-Roman-61"/>
      <use x="163.96484375" xlink:href="#BitstreamVeraSans-Roman-6e"/>
      <use x="227.34375" xlink:href="#BitstreamVeraSans-Roman-6c"/>
      <use x="255.126953125" xlink:href="#BitstreamVeraSans-Roman-65"/>
      <use x="316.650390625" xlink:href="#BitstreamVeraSans-Roman-79"/>
      <use x="375.830078125" xlink:href="#BitstreamVeraSans-Roman-20"/>
      <use x="407.6171875" xlink:href="#BitstreamVeraSans-Roman-52"/>
      <use x="477.068359375" xlink:href="#BitstreamVeraSans-Roman-61"/>
      <use x="538.34765625" xlink:href="#BitstreamVeraSans-Roman-62"/>
      <use x="601.82421875" xlink:href="#BitstreamVeraSans-Roman-69"/>
      <use x="629.607421875" xlink:href="#BitstreamVeraSans-Roman-6e"/>
      <use x="692.986328125" xlink:href="#BitstreamVeraSans-Roman-6f"/>
      <use x="754.16796875" xlink:href="#BitstreamVeraSans-Roman-77"/>
      <use x="835.955078125" xlink:href="#BitstreamVeraSans-Roman-69"/>
      <use x="863.73828125" xlink:href="#BitstreamVeraSans-Roman-74"/>
      <use x="902.947265625" xlink:href="#BitstreamVeraSans-Roman-7a"/>
      <use x="955.4375" xlink:href="#BitstreamVeraSans-Roman-20"/>
      <use x="987.224609375" xlink:href="#BitstreamVeraSans-Roman-61"/>
      <use x="1048.50390625" xlink:href="#BitstreamVeraSans-Roman-6e"/>
      <use x="1111.8828125" xlink:href="#BitstreamVeraSans-Roman-64"/>
      <use x="1175.359375" xlink:href="#BitstreamVeraSans-Roman-20"/>
      <use x="1207.14648438" xlink:href="#BitstreamVeraSans-Roman-53"/>
      <use x="1270.62304688" xlink:href="#BitstreamVeraSans-Roman-74"/>
      <use x="1309.83203125" xlink:href="#BitstreamVeraSans-Roman-61"/>
      <use x="1371.11132812" xlink:href="#BitstreamVeraSans-Roman-6e"/>
      <use x="1434.49023438" xlink:href="#BitstreamVeraSans-Roman-20"/>
      <use x="1466.27734375" xlink:href="#BitstreamVeraSans-Roman-57"/>
      <use x="1565.06054688" xlink:href="#BitstreamVeraSans-Roman-61"/>
      <use x="1626.33984375" xlink:href="#BitstreamVeraSans-Roman-67"/>
      <use x="1689.81640625" xlink:href="#BitstreamVeraSans-Roman-6f"/>
      <use x="1750.99804688" xlink:href="#BitstreamVeraSans-Roman-6e"/>
      <use x="1814.37695312" xlink:href="#BitstreamVeraSans-Roman-27"/>
      <use x="1841.8671875" xlink:href="#BitstreamVeraSans-Roman-73"/>
      <use x="1893.96679688" xlink:href="#BitstreamVeraSans-Roman-20"/>
      <use x="1925.75390625" xlink:href="#BitstreamVeraSans-Roman-73"/>
      <use x="1977.85351562" xlink:href="#BitstreamVeraSans-Roman-70"/>
      <use x="2041.33007812" xlink:href="#BitstreamVeraSans-Roman-69"/>
      <use x="2069.11328125" xlink:href="#BitstreamVeraSans-Roman-67"/>
      <use x="2132.58984375" xlink:href="#BitstreamVeraSans-Roman-6f"/>
      <use x="2193.77148438" xlink:href="#BitstreamVeraSans-Roman-74"/>
      <use x="2232.98046875" xlink:href="#BitstreamVeraSans-Roman-20"/>
      <use x="2264.76757812" xlink:href="#BitstreamVeraSans-Roman-61"/>
      <use x="2326.046875" xlink:href="#BitstreamVeraSans-Roman-6c"/>
      <use x="2353.83007812" xlink:href="#BitstreamVeraSans-Roman-67"/>
      <use x="2417.30664062" xlink:href="#BitstreamVeraSans-Roman-6f"/>
      <use x="2478.48828125" xlink:href="#BitstreamVeraSans-Roman-72"/>
      <use x="2519.6015625" xlink:href="#BitstreamVeraSans-Roman-69"/>
      <use x="2547.38476562" xlink:href="#BitstreamVeraSans-Roman-74"/>
      <use x="2586.59375" xlink:href="#BitstreamVeraSans-Roman-68"/>
      <use x="2649.97265625" xlink:href="#BitstreamVeraSans-Roman-6d"/>
     </g>
    </g>
   </g>
  </g>
 </g>
 <defs>
  <clipPath id="p1513bafb72">
   <rect height="375.526153846" width="489.510783903" x="17.6894560788" y="30.685"/>
  </clipPath>
 </defs>
</svg>
